<?xml version="1.0" encoding="UTF-8" standalone="no"?>
<!DOCTYPE svg PUBLIC "-//W3C//DTD SVG 1.1//EN" "http://www.w3.org/Graphics/SVG/1.1/DTD/svg11.dtd">
<svg width="100%" height="100%" viewBox="0 0 700 488" version="1.1" xmlns="http://www.w3.org/2000/svg" xmlns:xlink="http://www.w3.org/1999/xlink" xml:space="preserve" style="fill-rule:evenodd;clip-rule:evenodd;stroke-linecap:round;stroke-linejoin:round;stroke-miterlimit:10;">
    <g transform="matrix(1,0,0,1,-111.972,-118.464)">
        <path d="M324.063,282L324.063,239.9" style="fill:none;stroke:rgb(193,27,36);stroke-width:1px;"/>
    </g>
    <g transform="matrix(1,0,0,1,-111.972,-118.464)">
        <path d="M324.063,231.9L321.063,239.9L327.063,239.9L324.063,231.9Z" style="fill:rgb(193,27,36);fill-rule:nonzero;stroke:rgb(193,27,36);stroke-width:1px;stroke-linecap:butt;stroke-linejoin:miter;"/>
    </g>
    <g transform="matrix(1,0,0,1,-111.972,-118.464)">
        <rect x="302.063" y="253.467" width="44" height="16" style="fill:white;fill-rule:nonzero;"/>
    </g>
    <g transform="matrix(1,0,0,1,-111.972,-118.464)">
        <path d="M299.688,282L235.722,255.758" style="fill:none;stroke:rgb(193,27,36);stroke-width:1px;"/>
    </g>
    <g transform="matrix(1,0,0,1,-111.972,-118.464)">
        <path d="M228.32,252.721L234.583,258.533L236.86,252.982L228.32,252.721Z" style="fill:rgb(193,27,36);fill-rule:nonzero;stroke:rgb(193,27,36);stroke-width:1px;stroke-linecap:butt;stroke-linejoin:miter;"/>
    </g>
    <g transform="matrix(1,0,0,1,-111.972,-118.464)">
        <rect x="237.032" y="258.962" width="52" height="16" style="fill:white;fill-rule:nonzero;"/>
    </g>
    <g transform="matrix(1,0,0,1,-111.972,-118.464)">
        <text x="297.095px" y="297.776px" style="font-family:'HelveticaNeue', 'Helvetica Neue';font-size:16px;">T<tspan x="304.503px 313.687px 318.727px 327.911px " y="297.776px 297.776px 297.776px 297.776px ">oron</tspan>to</text>
    </g>
    <g transform="matrix(1,0,0,1,-111.972,-118.464)">
        <text x="296.207px" y="225.776px" style="font-family:'HelveticaNeue', 'Helvetica Neue';font-size:16px;">Canada</text>
    </g>
    <g transform="matrix(1,0,0,1,-111.972,-118.464)">
        <text x="187.807px" y="249.776px" style="font-family:'HelveticaNeue', 'Helvetica Neue';font-size:16px;">Miller</text>
    </g>
    <g transform="matrix(1,0,0,1,-111.972,-118.464)">
        <text x="156.52px" y="312.776px" style="font-family:'HelveticaNeue', 'Helvetica Neue';font-size:16px;">Pearson</text>
    </g>
    <g transform="matrix(1,0,0,1,-111.972,-118.464)">
        <text x="209.432px" y="357.776px" style="font-family:'HelveticaNeue', 'Helvetica Neue';font-size:16px;">Connaught</text>
    </g>
    <g transform="matrix(1,0,0,1,-111.972,-118.464)">
        <text x="260.208px" y="438.776px" style="font-family:'HelveticaNeue', 'Helvetica Neue';font-size:16px;">Skydome</text>
    </g>
    <g transform="matrix(1,0,0,1,-111.972,-118.464)">
        <text x="311.768px" y="408.776px" style="font-family:'HelveticaNeue', 'Helvetica Neue';font-size:16px;">Globe and Mail</text>
    </g>
    <g transform="matrix(1,0,0,1,-111.972,-118.464)">
        <text x="405.44px" y="474.776px" style="font-family:'HelveticaNeue', 'Helvetica Neue';font-size:16px;">Milson</text>
    </g>
    <g transform="matrix(1,0,0,1,-111.972,-118.464)">
        <text x="302.151px" y="265.785px" style="font-family:'HelveticaNeue', 'Helvetica Neue';font-size:13px;fill:rgb(193,27,36);">country</text>
    </g>
    <g transform="matrix(1,0,0,1,-111.972,-118.464)">
        <text x="237.032px" y="271.28px" style="font-family:'HelveticaNeue', 'Helvetica Neue';font-size:13px;fill:rgb(193,27,36);">politician</text>
    </g>
    <g transform="matrix(1,0,0,1,-111.972,-118.464)">
        <path d="M297.063,294.933L225.342,302.726" style="fill:none;stroke:rgb(193,27,36);stroke-width:1px;"/>
    </g>
    <g transform="matrix(1,0,0,1,-111.972,-118.464)">
        <path d="M217.389,303.59L225.666,305.708L225.018,299.743L217.389,303.59Z" style="fill:rgb(193,27,36);fill-rule:nonzero;stroke:rgb(193,27,36);stroke-width:1px;stroke-linecap:butt;stroke-linejoin:miter;"/>
    </g>
    <g transform="matrix(1,0,0,1,-111.972,-118.464)">
        <rect x="237.177" y="291.376" width="38" height="16" style="fill:white;fill-rule:nonzero;"/>
    </g>
    <g transform="matrix(1,0,0,1,-111.972,-118.464)">
        <text x="237.282px" y="303.694px" style="font-family:'HelveticaNeue', 'Helvetica Neue';font-size:13px;fill:rgb(193,27,36);">airport</text>
    </g>
    <g transform="matrix(1,0,0,1,-111.972,-118.464)">
        <path d="M311.552,302L269.244,335.819" style="fill:none;stroke:rgb(193,27,36);stroke-width:1px;"/>
    </g>
    <g transform="matrix(1,0,0,1,-111.972,-118.464)">
        <path d="M262.994,340.814L271.117,338.162L267.37,333.475L262.994,340.814Z" style="fill:rgb(193,27,36);fill-rule:nonzero;stroke:rgb(193,27,36);stroke-width:1px;stroke-linecap:butt;stroke-linejoin:miter;"/>
    </g>
    <g transform="matrix(1,0,0,1,-111.972,-118.464)">
        <rect x="259.468" y="314.051" width="54" height="16" style="fill:white;fill-rule:nonzero;"/>
    </g>
    <g transform="matrix(1,0,0,1,-111.972,-118.464)">
        <text x="259.493px" y="326.369px" style="font-family:'HelveticaNeue', 'Helvetica Neue';font-size:13px;fill:rgb(193,27,36);">company</text>
    </g>
    <g transform="matrix(1,0,0,1,-111.972,-118.464)">
        <path d="M321.93,302L298.196,413.318" style="fill:none;stroke:rgb(193,27,36);stroke-width:1px;"/>
    </g>
    <g transform="matrix(1,0,0,1,-111.972,-118.464)">
        <path d="M296.528,421.142L301.131,413.943L295.262,412.692L296.528,421.142Z" style="fill:rgb(193,27,36);fill-rule:nonzero;stroke:rgb(193,27,36);stroke-width:1px;stroke-linecap:butt;stroke-linejoin:miter;"/>
    </g>
    <g transform="matrix(1,0,0,1,-111.972,-118.464)">
        <rect x="282.643" y="368.047" width="47" height="16" style="fill:white;fill-rule:nonzero;"/>
    </g>
    <g transform="matrix(1,0,0,1,-111.972,-118.464)">
        <text x="282.899px" y="380.365px" style="font-family:'HelveticaNeue', 'Helvetica Neue';font-size:13px;fill:rgb(193,27,36);">stadium</text>
    </g>
    <g transform="matrix(1,0,0,1,-111.972,-118.464)">
        <path d="M327.841,302L358.723,383.739" style="fill:none;stroke:rgb(193,27,36);stroke-width:1px;"/>
    </g>
    <g transform="matrix(1,0,0,1,-111.972,-118.464)">
        <path d="M361.55,391.223L361.529,382.679L355.916,384.799L361.55,391.223Z" style="fill:rgb(193,27,36);fill-rule:nonzero;stroke:rgb(193,27,36);stroke-width:1px;stroke-linecap:butt;stroke-linejoin:miter;"/>
    </g>
    <g transform="matrix(1,0,0,1,-111.972,-118.464)">
        <rect x="328.075" y="339.616" width="34" height="16" style="fill:white;fill-rule:nonzero;"/>
    </g>
    <g transform="matrix(1,0,0,1,-111.972,-118.464)">
        <path d="M375.546,413L412.619,451.839" style="fill:none;stroke:rgb(193,27,36);stroke-width:1px;"/>
    </g>
    <g transform="matrix(1,0,0,1,-111.972,-118.464)">
        <path d="M418.143,457.626L414.789,449.767L410.449,453.91L418.143,457.626Z" style="fill:rgb(193,27,36);fill-rule:nonzero;stroke:rgb(193,27,36);stroke-width:1px;stroke-linecap:butt;stroke-linejoin:miter;"/>
    </g>
    <g transform="matrix(1,0,0,1,-111.972,-118.464)">
        <rect x="381.056" y="428.059" width="33" height="16" style="fill:white;fill-rule:nonzero;"/>
    </g>
    <g transform="matrix(1,0,0,1,-111.972,-118.464)">
        <path d="M334.53,282L405.875,213.839" style="fill:none;stroke:rgb(193,27,36);stroke-width:1px;"/>
    </g>
    <g transform="matrix(1,0,0,1,-111.972,-118.464)">
        <path d="M411.659,208.313L403.802,211.67L407.947,216.008L411.659,208.313Z" style="fill:rgb(193,27,36);fill-rule:nonzero;stroke:rgb(193,27,36);stroke-width:1px;stroke-linecap:butt;stroke-linejoin:miter;"/>
    </g>
    <g transform="matrix(1,0,0,1,-111.972,-118.464)">
        <rect x="351.053" y="236.241" width="46" height="16" style="fill:white;fill-rule:nonzero;"/>
    </g>
    <g transform="matrix(1,0,0,1,-111.972,-118.464)">
        <path d="M351.063,284.032L401.505,269.147" style="fill:none;stroke:rgb(193,27,36);stroke-width:1px;"/>
    </g>
    <g transform="matrix(1,0,0,1,-111.972,-118.464)">
        <path d="M409.178,266.882L400.656,266.269L402.354,272.024L409.178,266.882Z" style="fill:rgb(193,27,36);fill-rule:nonzero;stroke:rgb(193,27,36);stroke-width:1px;stroke-linecap:butt;stroke-linejoin:miter;"/>
    </g>
    <g transform="matrix(1,0,0,1,-111.972,-118.464)">
        <rect x="359.729" y="269.048" width="30" height="16" style="fill:white;fill-rule:nonzero;"/>
    </g>
    <g transform="matrix(1,0,0,1,-111.972,-118.464)">
        <text x="328.221px" y="351.934px" style="font-family:'HelveticaNeue', 'Helvetica Neue';font-size:13px;fill:rgb(193,27,36);">paper</text>
    </g>
    <g transform="matrix(1,0,0,1,-111.972,-118.464)">
        <text x="381.319px" y="440.377px" style="font-family:'HelveticaNeue', 'Helvetica Neue';font-size:13px;fill:rgb(193,27,36);">writer</text>
    </g>
    <g transform="matrix(1,0,0,1,-111.972,-118.464)">
        <text x="419.796px" y="383.052px" style="font-family:'HelveticaNeue', 'Helvetica Neue';font-size:16px;">Air Canada</text>
    </g>
    <g transform="matrix(1,0,0,1,-111.972,-118.464)">
        <text x="435.644px" y="401.5px" style="font-family:'HelveticaNeue', 'Helvetica Neue';font-size:16px;">Centr<tspan x="474.764px " y="401.5px ">e</tspan></text>
    </g>
    <g transform="matrix(1,0,0,1,-111.972,-118.464)">
        <text x="451.788px" y="321.776px" style="font-family:'HelveticaNeue', 'Helvetica Neue';font-size:16px;">Maple Leafs</text>
    </g>
    <g transform="matrix(1,0,0,1,-111.972,-118.464)">
        <text x="411.172px" y="265.776px" style="font-family:'HelveticaNeue', 'Helvetica Neue';font-size:16px;">CFRB</text>
    </g>
    <g transform="matrix(1,0,0,1,-111.972,-118.464)">
        <text x="380.372px" y="202.776px" style="font-family:'HelveticaNeue', 'Helvetica Neue';font-size:16px;">Sunnybr<tspan x="439.956px 449.14px " y="202.776px 202.776px ">oo</tspan>k</text>
    </g>
    <g transform="matrix(1,0,0,1,-111.972,-118.464)">
        <text x="462.5px" y="231.776px" style="font-family:'HelveticaNeue', 'Helvetica Neue';font-size:16px;">Wilson</text>
    </g>
    <g transform="matrix(1,0,0,1,-111.972,-118.464)">
        <text x="531.684px" y="420.776px" style="font-family:'HelveticaNeue', 'Helvetica Neue';font-size:16px;">T<tspan x="539.092px 548.276px " y="420.776px 420.776px ">os</tspan>kala</text>
    </g>
    <g transform="matrix(1,0,0,1,-111.972,-118.464)">
        <text x="594.452px" y="392.776px" style="font-family:'HelveticaNeue', 'Helvetica Neue';font-size:16px;">Sundin</text>
    </g>
    <g transform="matrix(1,0,0,1,-111.972,-118.464)">
        <text x="630px" y="321.776px" style="font-family:'HelveticaNeue', 'Helvetica Neue';font-size:16px;">NHL</text>
    </g>
    <g transform="matrix(1,0,0,1,-111.972,-118.464)">
        <text x="540.388px" y="256.776px" style="font-family:'HelveticaNeue', 'Helvetica Neue';font-size:16px;">Hockey</text>
    </g>
    <g transform="matrix(1,0,0,1,-111.972,-118.464)">
        <text x="522.052px" y="186.776px" style="font-family:'HelveticaNeue', 'Helvetica Neue';font-size:16px;">Skates</text>
    </g>
    <g transform="matrix(1,0,0,1,-111.972,-118.464)">
        <text x="612.012px" y="195.776px" style="font-family:'HelveticaNeue', 'Helvetica Neue';font-size:16px;">Helmet</text>
    </g>
    <g transform="matrix(1,0,0,1,-111.972,-118.464)">
        <text x="351.179px" y="248.559px" style="font-family:'HelveticaNeue', 'Helvetica Neue';font-size:13px;fill:rgb(193,27,36);">hospital</text>
    </g>
    <g transform="matrix(1,0,0,1,-111.972,-118.464)">
        <text x="360.046px" y="281.366px" style="font-family:'HelveticaNeue', 'Helvetica Neue';font-size:13px;fill:rgb(193,27,36);">radio</text>
    </g>
    <g transform="matrix(1,0,0,1,-111.972,-118.464)">
        <path d="M451.5,309.84L360.867,297.152" style="fill:none;stroke:rgb(193,27,36);stroke-width:1px;"/>
    </g>
    <g transform="matrix(1,0,0,1,-111.972,-118.464)">
        <path d="M352.944,296.043L360.451,300.123L361.283,294.181L352.944,296.043Z" style="fill:rgb(193,27,36);fill-rule:nonzero;stroke:rgb(193,27,36);stroke-width:1px;stroke-linecap:butt;stroke-linejoin:miter;"/>
    </g>
    <g transform="matrix(1,0,0,1,-111.972,-118.464)">
        <rect x="380.842" y="296.288" width="62" height="16" style="fill:white;fill-rule:nonzero;"/>
    </g>
    <g transform="matrix(1,0,0,1,-111.972,-118.464)">
        <path d="M490.394,326L473.449,359.183" style="fill:none;stroke:rgb(193,27,36);stroke-width:1px;"/>
    </g>
    <g transform="matrix(1,0,0,1,-111.972,-118.464)">
        <path d="M469.811,366.308L476.121,360.547L470.777,357.819L469.811,366.308Z" style="fill:rgb(193,27,36);fill-rule:nonzero;stroke:rgb(193,27,36);stroke-width:1px;stroke-linecap:butt;stroke-linejoin:miter;"/>
    </g>
    <g transform="matrix(1,0,0,1,-111.972,-118.464)">
        <rect x="458.425" y="334.584" width="47" height="16" style="fill:white;fill-rule:nonzero;"/>
    </g>
    <g transform="matrix(1,0,0,1,-111.972,-118.464)">
        <text x="381.142px" y="308.606px" style="font-family:'HelveticaNeue', 'Helvetica Neue';font-size:13px;fill:rgb(193,27,36);">hometown</text>
    </g>
    <g transform="matrix(1,0,0,1,-111.972,-118.464)">
        <text x="458.681px" y="346.902px" style="font-family:'HelveticaNeue', 'Helvetica Neue';font-size:13px;fill:rgb(193,27,36);">stadium</text>
    </g>
    <g transform="matrix(1,0,0,1,-111.972,-118.464)">
        <path d="M338.395,302L424.867,362.335" style="fill:none;stroke:rgb(193,27,36);stroke-width:1px;"/>
    </g>
    <g transform="matrix(1,0,0,1,-111.972,-118.464)">
        <path d="M431.428,366.913L426.583,359.875L423.15,364.795L431.428,366.913Z" style="fill:rgb(193,27,36);fill-rule:nonzero;stroke:rgb(193,27,36);stroke-width:1px;stroke-linecap:butt;stroke-linejoin:miter;"/>
    </g>
    <g transform="matrix(1,0,0,1,-111.972,-118.464)">
        <rect x="352.245" y="320.061" width="47" height="16" style="fill:white;fill-rule:nonzero;"/>
    </g>
    <g transform="matrix(1,0,0,1,-111.972,-118.464)">
        <path d="M501.864,326L546.821,396.648" style="fill:none;stroke:rgb(193,27,36);stroke-width:1px;"/>
    </g>
    <g transform="matrix(1,0,0,1,-111.972,-118.464)">
        <path d="M551.116,403.397L549.352,395.037L544.29,398.258L551.116,403.397Z" style="fill:rgb(193,27,36);fill-rule:nonzero;stroke:rgb(193,27,36);stroke-width:1px;stroke-linecap:butt;stroke-linejoin:miter;"/>
    </g>
    <g transform="matrix(1,0,0,1,-111.972,-118.464)">
        <rect x="505.273" y="361.858" width="49" height="16" style="fill:white;fill-rule:nonzero;"/>
    </g>
    <g transform="matrix(1,0,0,1,-111.972,-118.464)">
        <text x="352.501px" y="332.379px" style="font-family:'HelveticaNeue', 'Helvetica Neue';font-size:13px;fill:rgb(193,27,36);">stadium</text>
    </g>
    <g transform="matrix(1,0,0,1,-111.972,-118.464)">
        <text x="505.684px" y="374.176px" style="font-family:'HelveticaNeue', 'Helvetica Neue';font-size:13px;fill:rgb(193,27,36);">member</text>
    </g>
    <g transform="matrix(1,0,0,1,-111.972,-118.464)">
        <path d="M512.965,326L593.444,372.081" style="fill:none;stroke:rgb(193,27,36);stroke-width:1px;"/>
    </g>
    <g transform="matrix(1,0,0,1,-111.972,-118.464)">
        <path d="M600.386,376.056L594.935,369.477L591.953,374.684L600.386,376.056Z" style="fill:rgb(193,27,36);fill-rule:nonzero;stroke:rgb(193,27,36);stroke-width:1px;stroke-linecap:butt;stroke-linejoin:miter;"/>
    </g>
    <g transform="matrix(1,0,0,1,-111.972,-118.464)">
        <rect x="523.635" y="338.138" width="49" height="16" style="fill:white;fill-rule:nonzero;"/>
    </g>
    <g transform="matrix(1,0,0,1,-111.972,-118.464)">
        <path d="M539.5,316L620.1,316" style="fill:none;stroke:rgb(193,27,36);stroke-width:1px;"/>
    </g>
    <g transform="matrix(1,0,0,1,-111.972,-118.464)">
        <path d="M628.1,316L620.1,313L620.1,319L628.1,316Z" style="fill:rgb(193,27,36);fill-rule:nonzero;stroke:rgb(193,27,36);stroke-width:1px;stroke-linecap:butt;stroke-linejoin:miter;"/>
    </g>
    <g transform="matrix(1,0,0,1,-111.972,-118.464)">
        <rect x="555.735" y="308" width="39" height="16" style="fill:white;fill-rule:nonzero;"/>
    </g>
    <g transform="matrix(1,0,0,1,-111.972,-118.464)">
        <path d="M623.232,377L638.806,335.275" style="fill:none;stroke:rgb(193,27,36);stroke-width:1px;"/>
    </g>
    <g transform="matrix(1,0,0,1,-111.972,-118.464)">
        <path d="M641.603,327.78L635.995,334.226L641.616,336.324L641.603,327.78Z" style="fill:rgb(193,27,36);fill-rule:nonzero;stroke:rgb(193,27,36);stroke-width:1px;stroke-linecap:butt;stroke-linejoin:miter;"/>
    </g>
    <g transform="matrix(1,0,0,1,-111.972,-118.464)">
        <rect x="615.249" y="348.862" width="31" height="16" style="fill:white;fill-rule:nonzero;"/>
    </g>
    <g transform="matrix(1,0,0,1,-111.972,-118.464)">
        <path d="M537.309,306L640.563,281.303" style="fill:none;stroke:rgb(193,27,36);stroke-width:1px;"/>
    </g>
    <g transform="matrix(1,0,0,1,-111.972,-118.464)">
        <path d="M648.344,279.442L639.865,278.385L641.261,284.221L648.344,279.442Z" style="fill:rgb(193,27,36);fill-rule:nonzero;stroke:rgb(193,27,36);stroke-width:1px;stroke-linecap:butt;stroke-linejoin:miter;"/>
    </g>
    <g transform="matrix(1,0,0,1,-111.972,-118.464)">
        <rect x="569.381" y="287.339" width="25" height="16" style="fill:white;fill-rule:nonzero;"/>
    </g>
    <g transform="matrix(1,0,0,1,-111.972,-118.464)">
        <path d="M506.577,306L549.075,267.634" style="fill:none;stroke:rgb(193,27,36);stroke-width:1px;"/>
    </g>
    <g transform="matrix(1,0,0,1,-111.972,-118.464)">
        <path d="M555.013,262.273L547.064,265.407L551.085,269.861L555.013,262.273Z" style="fill:rgb(193,27,36);fill-rule:nonzero;stroke:rgb(193,27,36);stroke-width:1px;stroke-linecap:butt;stroke-linejoin:miter;"/>
    </g>
    <g transform="matrix(1,0,0,1,-111.972,-118.464)">
        <rect x="513.759" y="280.231" width="25" height="16" style="fill:white;fill-rule:nonzero;"/>
    </g>
    <g transform="matrix(1,0,0,1,-111.972,-118.464)">
        <path d="M564.5,241L552.345,200.483" style="fill:none;stroke:rgb(193,27,36);stroke-width:1px;"/>
    </g>
    <g transform="matrix(1,0,0,1,-111.972,-118.464)">
        <path d="M550.046,192.82L549.471,201.344L555.218,199.62L550.046,192.82Z" style="fill:rgb(193,27,36);fill-rule:nonzero;stroke:rgb(193,27,36);stroke-width:1px;stroke-linecap:butt;stroke-linejoin:miter;"/>
    </g>
    <g transform="matrix(1,0,0,1,-111.972,-118.464)">
        <rect x="544.577" y="213.257" width="28" height="16" style="fill:white;fill-rule:nonzero;"/>
    </g>
    <g transform="matrix(1,0,0,1,-111.972,-118.464)">
        <path d="M578.975,241L618.561,206.504" style="fill:none;stroke:rgb(193,27,36);stroke-width:1px;"/>
    </g>
    <g transform="matrix(1,0,0,1,-111.972,-118.464)">
        <path d="M624.592,201.248L616.59,204.242L620.532,208.766L624.592,201.248Z" style="fill:rgb(193,27,36);fill-rule:nonzero;stroke:rgb(193,27,36);stroke-width:1px;stroke-linecap:butt;stroke-linejoin:miter;"/>
    </g>
    <g transform="matrix(1,0,0,1,-111.972,-118.464)">
        <rect x="583.553" y="216.811" width="28" height="16" style="fill:white;fill-rule:nonzero;"/>
    </g>
    <g transform="matrix(1,0,0,1,-111.972,-118.464)">
        <path d="M494.5,306L488.485,245.851" style="fill:none;stroke:rgb(193,27,36);stroke-width:1px;"/>
    </g>
    <g transform="matrix(1,0,0,1,-111.972,-118.464)">
        <path d="M487.689,237.891L485.5,246.149L491.47,245.552L487.689,237.891Z" style="fill:rgb(193,27,36);fill-rule:nonzero;stroke:rgb(193,27,36);stroke-width:1px;stroke-linecap:butt;stroke-linejoin:miter;"/>
    </g>
    <g transform="matrix(1,0,0,1,-111.972,-118.464)">
        <rect x="477.236" y="270.36" width="29" height="16" style="fill:white;fill-rule:nonzero;"/>
    </g>
    <g transform="matrix(1,0,0,1,-111.972,-118.464)">
        <path d="M706.931,359L695.279,288.766" style="fill:none;stroke:rgb(193,27,36);stroke-width:1px;"/>
    </g>
    <g transform="matrix(1,0,0,1,-111.972,-118.464)">
        <path d="M693.97,280.874L692.32,289.258L698.239,288.276L693.97,280.874Z" style="fill:rgb(193,27,36);fill-rule:nonzero;stroke:rgb(193,27,36);stroke-width:1px;stroke-linecap:butt;stroke-linejoin:miter;"/>
    </g>
    <g transform="matrix(1,0,0,1,-111.972,-118.464)">
        <rect x="689.19" y="319.412" width="25" height="16" style="fill:white;fill-rule:nonzero;"/>
    </g>
    <g transform="matrix(1,0,0,1,-111.972,-118.464)">
        <text x="524.046px" y="350.456px" style="font-family:'HelveticaNeue', 'Helvetica Neue';font-size:13px;fill:rgb(193,27,36);">member</text>
    </g>
    <g transform="matrix(1,0,0,1,-111.972,-118.464)">
        <text x="555.975px" y="320.318px" style="font-family:'HelveticaNeue', 'Helvetica Neue';font-size:13px;fill:rgb(193,27,36);">league</text>
    </g>
    <g transform="matrix(1,0,0,1,-111.972,-118.464)">
        <text x="615.461px" y="361.18px" style="font-family:'HelveticaNeue', 'Helvetica Neue';font-size:13px;fill:rgb(193,27,36);">plays</text>
    </g>
    <g transform="matrix(1,0,0,1,-111.972,-118.464)">
        <text x="648.288px" y="274.776px" style="font-family:'HelveticaNeue', 'Helvetica Neue';font-size:16px;">Stanley Cup</text>
    </g>
    <g transform="matrix(1,0,0,1,-111.972,-118.464)">
        <text x="569.609px" y="299.657px" style="font-family:'HelveticaNeue', 'Helvetica Neue';font-size:13px;fill:rgb(193,27,36);">won</text>
    </g>
    <g transform="matrix(1,0,0,1,-111.972,-118.464)">
        <text x="514.221px" y="292.549px" style="font-family:'HelveticaNeue', 'Helvetica Neue';font-size:13px;fill:rgb(193,27,36);">play</text>
    </g>
    <g transform="matrix(1,0,0,1,-111.972,-118.464)">
        <text x="544.973px" y="225.575px" style="font-family:'HelveticaNeue', 'Helvetica Neue';font-size:13px;fill:rgb(193,27,36);">uses</text>
    </g>
    <g transform="matrix(1,0,0,1,-111.972,-118.464)">
        <text x="583.949px" y="229.129px" style="font-family:'HelveticaNeue', 'Helvetica Neue';font-size:13px;fill:rgb(193,27,36);">uses</text>
    </g>
    <g transform="matrix(1,0,0,1,-111.972,-118.464)">
        <text x="477.286px" y="282.678px" style="font-family:'HelveticaNeue', 'Helvetica Neue';font-size:13px;fill:rgb(193,27,36);">hi</text>
        <text x="487.4px" y="282.678px" style="font-family:'HelveticaNeue', 'Helvetica Neue';font-size:13px;fill:rgb(193,27,36);">r</text>
        <text x="491.479px" y="282.678px" style="font-family:'HelveticaNeue', 'Helvetica Neue';font-size:13px;fill:rgb(193,27,36);">ed</text>
    </g>
    <g transform="matrix(1,0,0,1,-111.972,-118.464)">
        <text x="695.48px" y="374.052px" style="font-family:'HelveticaNeue', 'Helvetica Neue';font-size:16px;">Red</text>
    </g>
    <g transform="matrix(1,0,0,1,-111.972,-118.464)">
        <text x="687.776px" y="392.5px" style="font-family:'HelveticaNeue', 'Helvetica Neue';font-size:16px;">Wings</text>
    </g>
    <g transform="matrix(1,0,0,1,-111.972,-118.464)">
        <text x="657.144px" y="447.776px" style="font-family:'HelveticaNeue', 'Helvetica Neue';font-size:16px;">Detr<tspan x="687.08px 696.264px " y="447.776px 447.776px ">oi</tspan>t</text>
    </g>
    <g transform="matrix(1,0,0,1,-111.972,-118.464)">
        <text x="603.46px" y="537.776px" style="font-family:'HelveticaNeue', 'Helvetica Neue';font-size:16px;">GM</text>
    </g>
    <g transform="matrix(1,0,0,1,-111.972,-118.464)">
        <text x="513.296px" y="492.776px" style="font-family:'HelveticaNeue', 'Helvetica Neue';font-size:16px;">T<tspan x="520.704px 529.888px " y="492.776px 492.776px ">oy</tspan>ota</text>
    </g>
    <g transform="matrix(1,0,0,1,-111.972,-118.464)">
        <text x="468.408px" y="438.776px" style="font-family:'HelveticaNeue', 'Helvetica Neue';font-size:16px;">Hino</text>
    </g>
    <g transform="matrix(1,0,0,1,-111.972,-118.464)">
        <text x="380.136px" y="537.776px" style="font-family:'HelveticaNeue', 'Helvetica Neue';font-size:16px;">automobile</text>
    </g>
    <g transform="matrix(1,0,0,1,-111.972,-118.464)">
        <text x="495.428px" y="554.776px" style="font-family:'HelveticaNeue', 'Helvetica Neue';font-size:16px;">Prius</text>
    </g>
    <g transform="matrix(1,0,0,1,-111.972,-118.464)">
        <text x="588.172px" y="438.776px" style="font-family:'HelveticaNeue', 'Helvetica Neue';font-size:16px;">Cor<tspan x="613.948px 623.132px " y="438.776px 438.776px ">ol</tspan>la</text>
    </g>
    <g transform="matrix(1,0,0,1,-111.972,-118.464)">
        <text x="689.418px" y="331.73px" style="font-family:'HelveticaNeue', 'Helvetica Neue';font-size:13px;fill:rgb(193,27,36);">won</text>
    </g>
    <g transform="matrix(1,0,0,1,-111.972,-118.464)">
        <path d="M701.682,396L689.556,422.971" style="fill:none;stroke:rgb(193,27,36);stroke-width:1px;"/>
    </g>
    <g transform="matrix(1,0,0,1,-111.972,-118.464)">
        <path d="M686.275,430.267L692.292,424.201L686.82,421.741L686.275,430.267Z" style="fill:rgb(193,27,36);fill-rule:nonzero;stroke:rgb(193,27,36);stroke-width:1px;stroke-linecap:butt;stroke-linejoin:miter;"/>
    </g>
    <g transform="matrix(1,0,0,1,-111.972,-118.464)">
        <rect x="664.291" y="402.215" width="62" height="16" style="fill:white;fill-rule:nonzero;"/>
    </g>
    <g transform="matrix(1,0,0,1,-111.972,-118.464)">
        <path d="M673.833,452L629.434,513.953" style="fill:none;stroke:rgb(193,27,36);stroke-width:1px;"/>
    </g>
    <g transform="matrix(1,0,0,1,-111.972,-118.464)">
        <path d="M624.774,520.456L631.872,515.701L626.995,512.206L624.774,520.456Z" style="fill:rgb(193,27,36);fill-rule:nonzero;stroke:rgb(193,27,36);stroke-width:1px;stroke-linecap:butt;stroke-linejoin:miter;"/>
    </g>
    <g transform="matrix(1,0,0,1,-111.972,-118.464)">
        <rect x="627.025" y="471.64" width="54" height="16" style="fill:white;fill-rule:nonzero;"/>
    </g>
    <g transform="matrix(1,0,0,1,-111.972,-118.464)">
        <path d="M603,524.358L563.282,501.877" style="fill:none;stroke:rgb(193,27,36);stroke-width:1px;"/>
    </g>
    <g transform="matrix(1,0,0,1,-111.972,-118.464)">
        <path d="M556.32,497.936L561.804,504.488L564.76,499.266L556.32,497.936Z" style="fill:rgb(193,27,36);fill-rule:nonzero;stroke:rgb(193,27,36);stroke-width:1px;stroke-linecap:butt;stroke-linejoin:miter;"/>
    </g>
    <g transform="matrix(1,0,0,1,-111.972,-118.464)">
        <rect x="554.915" y="505.556" width="58" height="16" style="fill:white;fill-rule:nonzero;"/>
    </g>
    <g transform="matrix(1,0,0,1,-111.972,-118.464)">
        <path d="M527.37,477L501.497,450.131" style="fill:none;stroke:rgb(193,27,36);stroke-width:1px;"/>
    </g>
    <g transform="matrix(1,0,0,1,-111.972,-118.464)">
        <path d="M495.948,444.369L499.336,452.212L503.658,448.05L495.948,444.369Z" style="fill:rgb(193,27,36);fill-rule:nonzero;stroke:rgb(193,27,36);stroke-width:1px;stroke-linecap:butt;stroke-linejoin:miter;"/>
    </g>
    <g transform="matrix(1,0,0,1,-111.972,-118.464)">
        <rect x="489.928" y="456.598" width="51" height="16" style="fill:white;fill-rule:nonzero;"/>
    </g>
    <g transform="matrix(1,0,0,1,-111.972,-118.464)">
        <path d="M513,496.231L455.24,518.446" style="fill:none;stroke:rgb(193,27,36);stroke-width:1px;"/>
    </g>
    <g transform="matrix(1,0,0,1,-111.972,-118.464)">
        <path d="M447.773,521.318L456.317,521.246L454.163,515.646L447.773,521.318Z" style="fill:rgb(193,27,36);fill-rule:nonzero;stroke:rgb(193,27,36);stroke-width:1px;stroke-linecap:butt;stroke-linejoin:miter;"/>
    </g>
    <g transform="matrix(1,0,0,1,-111.972,-118.464)">
        <rect x="464.816" y="499.648" width="37" height="16" style="fill:white;fill-rule:nonzero;"/>
    </g>
    <g transform="matrix(1,0,0,1,-111.972,-118.464)">
        <path d="M533.21,497L520.799,529.743" style="fill:none;stroke:rgb(193,27,36);stroke-width:1px;"/>
    </g>
    <g transform="matrix(1,0,0,1,-111.972,-118.464)">
        <path d="M517.964,537.223L523.604,530.806L517.994,528.679L517.964,537.223Z" style="fill:rgb(193,27,36);fill-rule:nonzero;stroke:rgb(193,27,36);stroke-width:1px;stroke-linecap:butt;stroke-linejoin:miter;"/>
    </g>
    <g transform="matrix(1,0,0,1,-111.972,-118.464)">
        <rect x="502.651" y="511.58" width="44" height="16" style="fill:white;fill-rule:nonzero;"/>
    </g>
    <g transform="matrix(1,0,0,1,-111.972,-118.464)">
        <path d="M551.167,477L591.245,448.709" style="fill:none;stroke:rgb(193,27,36);stroke-width:1px;"/>
    </g>
    <g transform="matrix(1,0,0,1,-111.972,-118.464)">
        <path d="M597.781,444.096L589.515,446.258L592.975,451.16L597.781,444.096Z" style="fill:rgb(193,27,36);fill-rule:nonzero;stroke:rgb(193,27,36);stroke-width:1px;stroke-linecap:butt;stroke-linejoin:miter;"/>
    </g>
    <g transform="matrix(1,0,0,1,-111.972,-118.464)">
        <rect x="550.659" y="453.829" width="44" height="16" style="fill:white;fill-rule:nonzero;"/>
    </g>
    <g transform="matrix(1,0,0,1,-111.972,-118.464)">
        <path d="M655.019,234L645.144,209.198" style="fill:none;stroke:rgb(193,27,36);stroke-width:1px;"/>
    </g>
    <g transform="matrix(1,0,0,1,-111.972,-118.464)">
        <path d="M642.184,201.765L642.356,210.308L647.931,208.088L642.184,201.765Z" style="fill:rgb(193,27,36);fill-rule:nonzero;stroke:rgb(193,27,36);stroke-width:1px;stroke-linecap:butt;stroke-linejoin:miter;"/>
    </g>
    <g transform="matrix(1,0,0,1,-111.972,-118.464)">
        <rect x="635.673" y="212.575" width="28" height="16" style="fill:white;fill-rule:nonzero;"/>
    </g>
    <g transform="matrix(1,0,0,1,-111.972,-118.464)">
        <path d="M714.5,225L668.513,204.097" style="fill:none;stroke:rgb(193,27,36);stroke-width:1px;"/>
    </g>
    <g transform="matrix(1,0,0,1,-111.972,-118.464)">
        <path d="M661.23,200.786L667.271,206.828L669.754,201.366L661.23,200.786Z" style="fill:rgb(193,27,36);fill-rule:nonzero;stroke:rgb(193,27,36);stroke-width:1px;stroke-linecap:butt;stroke-linejoin:miter;"/>
    </g>
    <g transform="matrix(1,0,0,1,-111.972,-118.464)">
        <rect x="678.783" y="207.129" width="28" height="16" style="fill:white;fill-rule:nonzero;"/>
    </g>
    <g transform="matrix(1,0,0,1,-111.972,-118.464)">
        <text x="664.592px" y="414.533px" style="font-family:'HelveticaNeue', 'Helvetica Neue';font-size:13px;fill:rgb(193,27,36);">hometown</text>
    </g>
    <g transform="matrix(1,0,0,1,-111.972,-118.464)">
        <text x="627.05px" y="483.958px" style="font-family:'HelveticaNeue', 'Helvetica Neue';font-size:13px;fill:rgb(193,27,36);">company</text>
    </g>
    <g transform="matrix(1,0,0,1,-111.972,-118.464)">
        <text x="555.016px" y="517.874px" style="font-family:'HelveticaNeue', 'Helvetica Neue';font-size:13px;fill:rgb(193,27,36);">competes</text>
    </g>
    <g transform="matrix(1,0,0,1,-111.972,-118.464)">
        <text x="490.143px" y="468.916px" style="font-family:'HelveticaNeue', 'Helvetica Neue';font-size:13px;fill:rgb(193,27,36);">acqui</text>
        <text x="521.928px" y="468.916px" style="font-family:'HelveticaNeue', 'Helvetica Neue';font-size:13px;fill:rgb(193,27,36);">r</text>
        <text x="526.007px" y="468.916px" style="font-family:'HelveticaNeue', 'Helvetica Neue';font-size:13px;fill:rgb(193,27,36);">ed</text>
    </g>
    <g transform="matrix(1,0,0,1,-111.972,-118.464)">
        <text x="465.142px" y="511.966px" style="font-family:'HelveticaNeue', 'Helvetica Neue';font-size:13px;fill:rgb(193,27,36);">sector</text>
    </g>
    <g transform="matrix(1,0,0,1,-111.972,-118.464)">
        <text x="502.74px" y="523.898px" style="font-family:'HelveticaNeue', 'Helvetica Neue';font-size:13px;fill:rgb(193,27,36);">c</text>
        <text x="509.721px" y="523.898px" style="font-family:'HelveticaNeue', 'Helvetica Neue';font-size:13px;fill:rgb(193,27,36);">r</text>
        <text x="513.8px" y="523.898px" style="font-family:'HelveticaNeue', 'Helvetica Neue';font-size:13px;fill:rgb(193,27,36);">eated</text>
    </g>
    <g transform="matrix(1,0,0,1,-111.972,-118.464)">
        <text x="550.748px" y="466.147px" style="font-family:'HelveticaNeue', 'Helvetica Neue';font-size:13px;fill:rgb(193,27,36);">c</text>
        <text x="557.729px" y="466.147px" style="font-family:'HelveticaNeue', 'Helvetica Neue';font-size:13px;fill:rgb(193,27,36);">r</text>
        <text x="561.808px" y="466.147px" style="font-family:'HelveticaNeue', 'Helvetica Neue';font-size:13px;fill:rgb(193,27,36);">eated</text>
    </g>
    <g transform="matrix(1,0,0,1,-111.972,-118.464)">
        <text x="630.112px" y="249.776px" style="font-family:'HelveticaNeue', 'Helvetica Neue';font-size:16px;">Football</text>
    </g>
    <g transform="matrix(1,0,0,1,-111.972,-118.464)">
        <text x="704.788px" y="240.776px" style="font-family:'HelveticaNeue', 'Helvetica Neue';font-size:16px;">Climbing</text>
    </g>
    <g transform="matrix(1,0,0,1,-111.972,-118.464)">
        <text x="636.069px" y="224.893px" style="font-family:'HelveticaNeue', 'Helvetica Neue';font-size:13px;fill:rgb(193,27,36);">uses</text>
    </g>
    <g transform="matrix(1,0,0,1,-111.972,-118.464)">
        <text x="679.178px" y="219.447px" style="font-family:'HelveticaNeue', 'Helvetica Neue';font-size:13px;fill:rgb(193,27,36);">uses</text>
    </g>
</svg>
