<?xml version="1.0" encoding="UTF-8" standalone="no"?>
<!DOCTYPE svg PUBLIC "-//W3C//DTD SVG 1.1//EN" "http://www.w3.org/Graphics/SVG/1.1/DTD/svg11.dtd">
<svg width="100%" height="100%" viewBox="0 0 400 279" version="1.1" xmlns="http://www.w3.org/2000/svg" xmlns:xlink="http://www.w3.org/1999/xlink" xml:space="preserve" style="fill-rule:evenodd;clip-rule:evenodd;stroke-linecap:round;stroke-linejoin:round;stroke-miterlimit:10;">
    <g transform="matrix(1,0,0,1,-89.8594,-78.0902)">
        <path d="M122,208.497L182.866,208.497C185.628,208.497 187.866,210.736 187.866,213.497L187.866,231.843C187.866,234.605 185.628,236.843 182.866,236.843L122,236.843C119.239,236.843 117,234.605 117,231.843L117,213.497C117,210.736 119.239,208.497 122,208.497Z" style="fill:rgb(218,245,255);fill-rule:nonzero;stroke:black;stroke-width:1px;"/>
    </g>
    <g transform="matrix(1,0,0,1,-89.8594,-78.0902)">
        <path d="M222.134,208.497L283,208.497C285.761,208.497 288,210.736 288,213.497L288,231.843C288,234.605 285.761,236.843 283,236.843L222.134,236.843C219.372,236.843 217.134,234.605 217.134,231.843L217.134,213.497C217.134,210.736 219.372,208.497 222.134,208.497Z" style="fill:rgb(218,245,255);fill-rule:nonzero;stroke:black;stroke-width:1px;"/>
    </g>
    <g transform="matrix(1,0,0,1,-89.8594,-78.0902)">
        <path d="M366.134,208.497L427,208.497C429.761,208.497 432,210.736 432,213.497L432,231.843C432,234.605 429.761,236.843 427,236.843L366.134,236.843C363.372,236.843 361.134,234.605 361.134,231.843L361.134,213.497C361.134,210.736 363.372,208.497 366.134,208.497Z" style="fill:rgb(218,245,255);fill-rule:nonzero;stroke:black;stroke-width:1px;"/>
    </g>
    <g transform="matrix(1,0,0,1,-89.8594,-78.0902)">
        <rect x="117" y="125.312" width="70.866" height="28.347" style="fill:none;stroke:black;stroke-width:1px;"/>
    </g>
    <g transform="matrix(1,0,0,1,-89.8594,-78.0902)">
        <rect x="217.134" y="125.312" width="70.866" height="28.347" style="fill:none;stroke:black;stroke-width:1px;"/>
    </g>
    <g transform="matrix(1,0,0,1,-89.8594,-78.0902)">
        <rect x="361.134" y="125.312" width="70.866" height="28.347" style="fill:none;stroke:black;stroke-width:1px;"/>
    </g>
    <g transform="matrix(1,0,0,1,-89.8594,-78.0902)">
        <path d="M152.433,153.659L152.433,198.597" style="fill:none;stroke:black;stroke-width:1px;"/>
    </g>
    <g transform="matrix(1,0,0,1,-89.8594,-78.0902)">
        <path d="M152.433,206.597L155.433,198.597L149.433,198.597L152.433,206.597Z" style="fill-rule:nonzero;stroke:black;stroke-width:1px;stroke-linecap:butt;stroke-linejoin:miter;"/>
    </g>
    <g transform="matrix(1,0,0,1,-89.8594,-78.0902)">
        <path d="M252.567,153.659L252.567,198.597" style="fill:none;stroke:black;stroke-width:1px;"/>
    </g>
    <g transform="matrix(1,0,0,1,-89.8594,-78.0902)">
        <path d="M252.567,206.597L255.567,198.597L249.567,198.597L252.567,206.597Z" style="fill-rule:nonzero;stroke:black;stroke-width:1px;stroke-linecap:butt;stroke-linejoin:miter;"/>
    </g>
    <g transform="matrix(1,0,0,1,-89.8594,-78.0902)">
        <path d="M396.567,153.659L396.567,198.597" style="fill:none;stroke:black;stroke-width:1px;"/>
    </g>
    <g transform="matrix(1,0,0,1,-89.8594,-78.0902)">
        <path d="M396.567,206.597L399.567,198.597L393.567,198.597L396.567,206.597Z" style="fill-rule:nonzero;stroke:black;stroke-width:1px;stroke-linecap:butt;stroke-linejoin:miter;"/>
    </g>
    <g transform="matrix(1,0,0,1,-89.8594,-78.0902)">
        <rect x="324" y="286.101" width="108" height="36" style="fill:rgb(255,226,230);fill-rule:nonzero;stroke:black;stroke-width:1px;"/>
    </g>
    <g transform="matrix(1,0,0,1,-89.8594,-78.0902)">
        <path d="M145.585,286.101L270.585,286.101C273.347,286.101 275.585,288.34 275.585,291.101L275.585,317.101C275.585,319.863 273.347,322.101 270.585,322.101L145.585,322.101C142.824,322.101 140.585,319.863 140.585,317.101L140.585,291.101C140.585,288.34 142.824,286.101 145.585,286.101Z" style="fill:rgb(180,227,251);fill-rule:nonzero;stroke:black;stroke-width:1px;"/>
    </g>
    <g transform="matrix(1,0,0,1,-89.8594,-78.0902)">
        <path d="M153,237.394L207,286.101" style="fill:none;stroke:rgb(121,121,121);stroke-width:1px;"/>
    </g>
    <g transform="matrix(1,0,0,1,-89.8594,-78.0902)">
        <path d="M252,237.394L207,286.101" style="fill:none;stroke:rgb(121,121,121);stroke-width:1px;"/>
    </g>
    <g transform="matrix(1,0,0,1,-89.8594,-78.0902)">
        <path d="M396,237.394L207,286.101" style="fill:none;stroke:rgb(121,121,121);stroke-width:1px;"/>
    </g>
    <g transform="matrix(1,0,0,1,-89.8594,-78.0902)">
        <path d="M396,237.394L381.432,276.815" style="fill:none;stroke:black;stroke-width:1px;"/>
    </g>
    <g transform="matrix(1,0,0,1,-89.8594,-78.0902)">
        <path d="M378.659,284.319L384.246,277.855L378.618,275.775L378.659,284.319Z" style="fill-rule:nonzero;stroke:black;stroke-width:1px;stroke-linecap:butt;stroke-linejoin:miter;"/>
    </g>
    <g transform="matrix(1,0,0,1,-89.8594,-78.0902)">
        <path d="M252,237.394L368.766,282.532" style="fill:none;stroke:black;stroke-width:1px;"/>
    </g>
    <g transform="matrix(1,0,0,1,-89.8594,-78.0902)">
        <path d="M376.228,285.416L369.848,279.734L367.684,285.33L376.228,285.416Z" style="fill-rule:nonzero;stroke:black;stroke-width:1px;stroke-linecap:butt;stroke-linejoin:miter;"/>
    </g>
    <g transform="matrix(1,0,0,1,-89.8594,-78.0902)">
        <path d="M153,237.394L368.324,284.007" style="fill:none;stroke:black;stroke-width:1px;"/>
    </g>
    <g transform="matrix(1,0,0,1,-89.8594,-78.0902)">
        <path d="M376.143,285.699L368.959,281.075L367.689,286.939L376.143,285.699Z" style="fill-rule:nonzero;stroke:black;stroke-width:1px;stroke-linecap:butt;stroke-linejoin:miter;"/>
    </g>
    <g transform="matrix(1,0,0,1,-89.8594,-78.0902)">
        <rect x="324" y="322.101" width="108" height="27" style="fill:white;fill-rule:nonzero;stroke:black;stroke-width:1px;"/>
    </g>
    <g transform="matrix(1,0,0,1,-89.8594,-78.0902)">
        <text x="132.543px" y="226.502px" style="font-family:'HelveticaNeue', 'Helvetica Neue';font-size:12px;">Class 1</text>
    </g>
    <g transform="matrix(1,0,0,1,-89.8594,-78.0902)">
        <text x="232.677px" y="226.502px" style="font-family:'HelveticaNeue', 'Helvetica Neue';font-size:12px;">Class 2</text>
    </g>
    <g transform="matrix(1,0,0,1,-89.8594,-78.0902)">
        <text x="376.011px" y="226.502px" style="font-family:'HelveticaNeue', 'Helvetica Neue';font-size:12px;">Class K</text>
        <text x="316.063px" y="229.273px" style="font-family:'HelveticaNeue', 'Helvetica Neue';font-size:16px;">…</text>
    </g>
    <g transform="matrix(1,0,0,1,-89.8594,-78.0902)">
        <text x="127.887px" y="143.317px" style="font-family:'HelveticaNeue', 'Helvetica Neue';font-size:12px;">Classiﬁer</text>
    </g>
    <g transform="matrix(1,0,0,1,-89.8594,-78.0902)">
        <text x="228.021px" y="143.317px" style="font-family:'HelveticaNeue', 'Helvetica Neue';font-size:12px;">Classiﬁer</text>
    </g>
    <g transform="matrix(1,0,0,1,-89.8594,-78.0902)">
        <text x="372.021px" y="143.317px" style="font-family:'HelveticaNeue', 'Helvetica Neue';font-size:12px;">Classiﬁer</text>
        <text x="316.063px" y="146.088px" style="font-family:'HelveticaNeue', 'Helvetica Neue';font-size:16px;">…</text>
    </g>
    <g transform="matrix(0,-1,1,0,-89.8594,-78.0902)">
        <text x="-193.832px" y="149.358px" style="font-family:'HelveticaNeue', 'Helvetica Neue';font-size:11px;fill:rgb(121,121,121);">P</text>
        <text x="-186.704px" y="149.358px" style="font-family:'HelveticaNeue', 'Helvetica Neue';font-size:11px;fill:rgb(121,121,121);">r</text>
        <text x="-183.241px" y="149.358px" style="font-family:'HelveticaNeue', 'Helvetica Neue';font-size:11px;fill:rgb(121,121,121);">edict</text>
    </g>
    <g transform="matrix(0,-1,1,0,-89.8594,-78.0902)">
        <text x="-193.832px" y="249.389px" style="font-family:'HelveticaNeue', 'Helvetica Neue';font-size:11px;fill:rgb(121,121,121);">P</text>
        <text x="-186.704px" y="249.389px" style="font-family:'HelveticaNeue', 'Helvetica Neue';font-size:11px;fill:rgb(121,121,121);">r</text>
        <text x="-183.241px" y="249.389px" style="font-family:'HelveticaNeue', 'Helvetica Neue';font-size:11px;fill:rgb(121,121,121);">edict</text>
    </g>
    <g transform="matrix(0,-1,1,0,-89.8594,-78.0902)">
        <text x="-193.832px" y="392.701px" style="font-family:'HelveticaNeue', 'Helvetica Neue';font-size:11px;fill:rgb(121,121,121);">P</text>
        <text x="-186.704px" y="392.701px" style="font-family:'HelveticaNeue', 'Helvetica Neue';font-size:11px;fill:rgb(121,121,121);">r</text>
        <text x="-183.241px" y="392.701px" style="font-family:'HelveticaNeue', 'Helvetica Neue';font-size:11px;fill:rgb(121,121,121);">edict</text>
    </g>
    <g transform="matrix(1,0,0,1,-89.8594,-78.0902)">
        <text x="336.444px" y="300.765px" style="font-family:'HelveticaNeue', 'Helvetica Neue';font-size:12px;">Active Lea</text>
        <text x="392.448px" y="300.765px" style="font-family:'HelveticaNeue', 'Helvetica Neue';font-size:12px;">r</text>
        <text x="396.644px" y="300.765px" style="font-family:'HelveticaNeue', 'Helvetica Neue';font-size:12px;">ning</text>
        <text x="357.882px" y="315.101px" style="font-family:'HelveticaNeue', 'Helvetica Neue';font-size:12px;">Module</text>
    </g>
    <g transform="matrix(1,0,0,1,-89.8594,-78.0902)">
        <text x="156.305px" y="300.765px" style="font-family:'HelveticaNeue', 'Helvetica Neue';font-size:12px;">Logical Constraints</text>
        <text x="162.311px" y="315.101px" style="font-family:'HelveticaNeue', 'Helvetica Neue';font-size:12px;">between Classes</text>
    </g>
    <g transform="matrix(1,0,0,1,-89.8594,-78.0902)">
        <text x="339.664px" y="333.349px" style="font-family:'HelveticaNeue', 'Helvetica Neue';font-size:9px;fill:rgb(121,121,121);">Request for certain</text>
        <text x="331.241px" y="344.601px" style="font-family:'HelveticaNeue', 'Helvetica Neue';font-size:9px;fill:rgb(121,121,121);">examples to be labeled</text>
    </g>
    <g transform="matrix(1,0,0,1,-89.8594,-78.0902)">
        <text x="279.833px" y="93.846px" style="font-family:'HelveticaNeue', 'Helvetica Neue';font-size:11px;fill:rgb(121,121,121);">Re-train</text>
    </g>
    <g transform="matrix(1,0,0,1,-89.8594,-78.0902)">
        <path d="M275.585,304.101L314.1,304.101" style="fill:none;stroke:black;stroke-width:1px;"/>
    </g>
    <g transform="matrix(1,0,0,1,-89.8594,-78.0902)">
        <path d="M322.1,304.101L314.1,301.101L314.1,307.101L322.1,304.101Z" style="fill-rule:nonzero;stroke:black;stroke-width:1px;stroke-linecap:butt;stroke-linejoin:miter;"/>
    </g>
    <g transform="matrix(1,0,0,1,-89.8594,-78.0902)">
        <path d="M432,304.101L459,304.101L459,99L152.433,99L152.433,115.412" style="fill:none;stroke:black;stroke-width:1px;"/>
    </g>
    <g transform="matrix(1,0,0,1,-89.8594,-78.0902)">
        <path d="M152.433,123.412L155.433,115.412L149.433,115.412L152.433,123.412Z" style="fill-rule:nonzero;stroke:black;stroke-width:1px;stroke-linecap:butt;stroke-linejoin:miter;"/>
    </g>
    <g transform="matrix(1,0,0,1,-89.8594,-78.0902)">
        <path d="M252,99L252.23,115.413" style="fill:none;stroke:black;stroke-width:1px;"/>
    </g>
    <g transform="matrix(1,0,0,1,-89.8594,-78.0902)">
        <path d="M252.342,123.412L255.229,115.371L249.23,115.455L252.342,123.412Z" style="fill-rule:nonzero;stroke:black;stroke-width:1px;stroke-linecap:butt;stroke-linejoin:miter;"/>
    </g>
    <g transform="matrix(1,0,0,1,-89.8594,-78.0902)">
        <path d="M396,99L396.23,115.413" style="fill:none;stroke:black;stroke-width:1px;"/>
    </g>
    <g transform="matrix(1,0,0,1,-89.8594,-78.0902)">
        <path d="M396.342,123.412L399.229,115.371L393.23,115.455L396.342,123.412Z" style="fill-rule:nonzero;stroke:black;stroke-width:1px;stroke-linecap:butt;stroke-linejoin:miter;"/>
    </g>
</svg>
