<?xml version="1.0" encoding="UTF-8" standalone="no"?><!DOCTYPE svg PUBLIC "-//W3C//DTD SVG 1.1//EN" "http://www.w3.org/Graphics/SVG/1.1/DTD/svg11.dtd"><svg width="100%" height="100%" viewBox="-30 -30 490 340" version="1.1" xmlns="http://www.w3.org/2000/svg" xmlns:xlink="http://www.w3.org/1999/xlink" xml:space="preserve" xmlns:serif="http://www.serif.com/" style="fill-rule:evenodd;clip-rule:evenodd;stroke-linecap:round;stroke-linejoin:round;stroke-miterlimit:1.5;"><g id="surface1"></g><g id="surface11" serif:id="surface1"></g><path d="M388.18,15.423c0,-3.869 -3.141,-7.01 -7.01,-7.01l-297.263,0c-3.869,0 -7.01,3.141 -7.01,7.01l0,162.345c0,3.869 3.141,7.01 7.01,7.01l297.263,0c3.869,0 7.01,-3.141 7.01,-7.01l0,-162.345Z" style="fill:#f1f1f1;"/><g><path d="M149.747,145.659l-8,4l0,-8l8,4Z" style="fill:#b3b3b3;"/><path d="M141.747,145.659l-85.432,0" style="fill:none;stroke:#b3b3b3;stroke-width:2px;"/></g><g><path d="M232.565,207.887l-4,-8l8,0l-4,8Z" style="fill:#b3b3b3;"/><path d="M232.565,202.554l0,-32.038" style="fill:none;stroke:#b3b3b3;stroke-width:2px;"/></g><g><path d="M161.866,119.821l-4,-8l8,0l-4,8Z" style="fill:#b3b3b3;"/><path d="M161.866,113.304l0,-24.626" style="fill:none;stroke:#b3b3b3;stroke-width:2px;"/></g><g><path d="M161.866,60.822l-4,-8l8,0l-4,8Z" style="fill:#b3b3b3;"/><path d="M161.866,54.305l0,-14.994l247.138,0l0,35.894" style="fill:none;stroke:#b3b3b3;stroke-width:2px;stroke-dasharray:2,4,0,0;"/></g><g><path d="M303.227,119.821l-4,-8l8,0l-4,8Z" style="fill:#b3b3b3;"/><path d="M303.227,113.304l0,-24.626" style="fill:none;stroke:#b3b3b3;stroke-width:2px;"/></g><g><path d="M98.5,75.205l-8,4l0,-8l8,4Z" style="fill:#b3b3b3;"/><path d="M56.315,214.54l0,-139.335l35.243,0" style="fill:none;stroke:#b3b3b3;stroke-width:2px;"/></g><g><path d="M366.819,75.877l8,4l0,-8l-8,4Z" style="fill:#b3b3b3;"/><path d="M307.442,232.342l101.562,0l0,-156.465l-35.243,0" style="fill:none;stroke:#b3b3b3;stroke-width:2px;"/></g><text x="214.556px" y="25.734px" style="font-family:'Lato-Black', 'Lato', sans-serif;font-weight:900;font-size:14px;fill:#ce0000;">CURRICUL<tspan x="283.786px " y="25.734px ">U</tspan>M LEARNING</text><path d="M224.366,68.744c0,-3.869 -3.141,-7.011 -7.01,-7.011l-110.98,0c-3.869,0 -7.01,3.142 -7.01,7.011l0,12.923c0,3.869 3.141,7.011 7.01,7.011l110.98,0c3.869,0 7.01,-3.142 7.01,-7.011l0,-12.923Z" style="fill:#f9f9f9;"/><clipPath id="_clip1"><path d="M224.366,68.744c0,-3.869 -3.141,-7.011 -7.01,-7.011l-110.98,0c-3.869,0 -7.01,3.142 -7.01,7.011l0,12.923c0,3.869 3.141,7.011 7.01,7.011l110.98,0c3.869,0 7.01,-3.142 7.01,-7.011l0,-12.923Z"/></clipPath><g clip-path="url(#_clip1)"><text x="116.078px" y="81.033px" style="font-family:'Lato-Black', 'Lato', sans-serif;font-weight:900;font-size:16px;fill:#ce0000;">DIFFICUL<tspan x="185.846px " y="81.033px ">T</tspan>Y</text></g><path d="M224.366,68.744c0,-3.869 -3.141,-7.011 -7.01,-7.011l-110.98,0c-3.869,0 -7.01,3.142 -7.01,7.011l0,12.923c0,3.869 3.141,7.011 7.01,7.011l110.98,0c3.869,0 7.01,-3.142 7.01,-7.011l0,-12.923Z" style="fill:none;stroke:#ce0000;stroke-width:2px;"/><path d="M365.727,127.813c0,-3.869 -3.141,-7.01 -7.01,-7.01l-252.676,0c-3.869,0 -7.01,3.141 -7.01,7.01l0,35.693c0,3.869 3.141,7.01 7.01,7.01l252.676,0c3.869,0 7.01,-3.141 7.01,-7.01l0,-35.693Z" style="fill:#f9f9f9;"/><clipPath id="_clip2"><path d="M365.727,127.813c0,-3.869 -3.141,-7.01 -7.01,-7.01l-252.676,0c-3.869,0 -7.01,3.141 -7.01,7.01l0,35.693c0,3.869 3.141,7.01 7.01,7.01l252.676,0c3.869,0 7.01,-3.141 7.01,-7.01l0,-35.693Z"/></clipPath><g clip-path="url(#_clip2)"><text x="105.242px" y="137.283px" style="font-family:'Lato-Regular', 'Lato', sans-serif;font-size:13px;fill:#818181;">U<tspan x="114.491px " y="137.283px ">s</tspan>e sample only<tspan x="197.717px " y="137.283px "> </tspan>if:</text><text x="128.492px" y="155.429px" style="font-family:'Lato-Bold', 'Lato', sans-serif;font-weight:700;font-size:13px;fill:#414141;">diﬃculty(<tspan x="183.047px " y="155.429px ">s</tspan>ample<tspan x="223.509px " y="155.429px ">)</tspan> ≤ c<tspan x="247.085px " y="155.429px ">o</tspan>mpet<tspan x="284.486px " y="155.429px ">e</tspan>nc<tspan x="304.909px " y="155.429px ">e</tspan>(model)</text><g id="surface12" serif:id="surface1"></g></g><path d="M365.727,127.813c0,-3.869 -3.141,-7.01 -7.01,-7.01l-252.676,0c-3.869,0 -7.01,3.141 -7.01,7.01l0,35.693c0,3.869 3.141,7.01 7.01,7.01l252.676,0c3.869,0 7.01,-3.141 7.01,-7.01l0,-35.693Z" style="fill:none;stroke:#7f7f7f;stroke-width:2px;"/><path d="M365.727,68.744c0,-3.869 -3.141,-7.011 -7.01,-7.011l-110.98,0c-3.869,0 -7.01,3.142 -7.01,7.011l0,12.923c0,3.869 3.141,7.011 7.01,7.011l110.98,0c3.869,0 7.01,-3.142 7.01,-7.011l0,-12.923Z" style="fill:#f9f9f9;"/><clipPath id="_clip3"><path d="M365.727,68.744c0,-3.869 -3.141,-7.011 -7.01,-7.011l-110.98,0c-3.869,0 -7.01,3.142 -7.01,7.011l0,12.923c0,3.869 3.141,7.011 7.01,7.011l110.98,0c3.869,0 7.01,-3.142 7.01,-7.011l0,-12.923Z"/></clipPath><g clip-path="url(#_clip3)"><text x="248.779px" y="81.033px" style="font-family:'Lato-Black', 'Lato', sans-serif;font-weight:900;font-size:16px;fill:#ce0000;">C<tspan x="258.995px " y="81.033px ">O</tspan>MPETENCE</text></g><path d="M365.727,68.744c0,-3.869 -3.141,-7.011 -7.01,-7.011l-110.98,0c-3.869,0 -7.01,3.142 -7.01,7.011l0,12.923c0,3.869 3.141,7.011 7.01,7.011l110.98,0c3.869,0 7.01,-3.142 7.01,-7.011l0,-12.923Z" style="fill:none;stroke:#ce0000;stroke-width:2px;"/><path d="M307.442,215.822c0,-3.869 -3.141,-7.01 -7.01,-7.01l-135.735,0c-3.869,0 -7.01,3.141 -7.01,7.01l0,33.039c0,3.869 3.141,7.01 7.01,7.01l135.735,0c3.869,0 7.01,-3.141 7.01,-7.01l0,-33.039Z" style="fill:#f9f9f9;"/><clipPath id="_clip4"><path d="M307.442,215.822c0,-3.869 -3.141,-7.01 -7.01,-7.01l-135.735,0c-3.869,0 -7.01,3.141 -7.01,7.01l0,33.039c0,3.869 3.141,7.01 7.01,7.01l135.735,0c3.869,0 7.01,-3.141 7.01,-7.01l0,-33.039Z"/></clipPath><g clip-path="url(#_clip4)"><text x="167.325px" y="238.17px" style="font-family:'Lato-Black', 'Lato', sans-serif;font-weight:900;font-size:16px;fill:#414141;">MODEL<tspan x="224.981px 228.189px " y="238.17px 238.17px "> T</tspan>RAINER</text></g><path d="M307.442,215.822c0,-3.869 -3.141,-7.01 -7.01,-7.01l-135.735,0c-3.869,0 -7.01,3.141 -7.01,7.01l0,33.039c0,3.869 3.141,7.01 7.01,7.01l135.735,0c3.869,0 7.01,-3.141 7.01,-7.01l0,-33.039Z" style="fill:none;stroke:#7f7f7f;stroke-width:2px;"/><g><path d="M7.345,206.047l97.939,0l0,51.873c0,7.543 -21.942,13.667 -48.969,13.667c-27.027,0 -48.97,-6.124 -48.97,-13.667l0,-51.873Z" style="fill:#fff;stroke:#a6a6a6;stroke-width:2px;"/><ellipse cx="56.315" cy="205.908" rx="48.97" ry="12.812" style="fill:#fff;stroke:#a6a6a6;stroke-width:2px;"/><rect x="7.345" y="220.043" width="97.939" height="17.735" style="fill:none;"/><clipPath id="_clip5"><rect x="7.345" y="220.043" width="97.939" height="17.735"/></clipPath><g clip-path="url(#_clip5)"><ellipse cx="56.313" cy="220.043" rx="48.268" ry="12.812" style="fill:#fff;stroke:#a6a6a6;stroke-width:1px;"/></g><rect x="8.045" y="246.276" width="96.536" height="17.735" style="fill:none;"/><clipPath id="_clip6"><rect x="8.045" y="246.276" width="96.536" height="17.735"/></clipPath><g clip-path="url(#_clip6)"><ellipse cx="56.313" cy="246.276" rx="48.268" ry="12.812" style="fill:#fff;stroke:#a6a6a6;stroke-width:1px;"/></g><text x="34.647px" y="250.104px" style="font-family:'Lato-Black', 'Lato', sans-serif;font-weight:900;font-size:16px;fill:#414141;">D<tspan x="46.423px 56.663px 65.271px " y="250.104px 250.104px 250.104px ">ATA</tspan></text></g><g transform="matrix(6.12323e-17,-1,1,6.12323e-17,-411.439,249.987)"><text x="86.285px" y="463.646px" style="font-family:'Lato-Black', 'Lato', sans-serif;font-weight:900;font-size:14px;fill:#414141;">S<tspan x="93.81px " y="463.646px ">A</tspan>MPLE</text></g><g transform="matrix(6.12323e-17,1,-1,6.12323e-17,502.519,-588.035)"><text x="692.646px" y="90.175px" style="font-family:'Lato-Black', 'Lato', sans-serif;font-weight:900;font-size:14px;fill:#414141;">MODEL<tspan x="743.095px " y="90.175px "> </tspan>ST<tspan x="761.617px 770.577px " y="90.175px 90.175px ">AT</tspan>E</text></g></svg>