<?xml version="1.0" encoding="UTF-8" standalone="no"?>
<!DOCTYPE svg PUBLIC "-//W3C//DTD SVG 1.1//EN" "http://www.w3.org/Graphics/SVG/1.1/DTD/svg11.dtd">
<svg width="100%" height="100%" viewBox="0 0 2453 227" version="1.1" xmlns="http://www.w3.org/2000/svg" xmlns:xlink="http://www.w3.org/1999/xlink" xml:space="preserve" xmlns:serif="http://www.serif.com/" style="fill-rule:evenodd;clip-rule:evenodd;stroke-linejoin:round;stroke-miterlimit:1.41421;">
    <g id="MT-System-Example" serif:id="MT System Example" transform="matrix(1,0,0,1,-396.668,-2525.07)">
        <g>
            <g transform="matrix(1,0,0,1,224.317,2253.71)">
                <path d="M315.733,345.307L315.679,353.865L267.849,353.865L267.849,276.245L315.679,276.245L315.679,284.803L278.358,284.803L278.358,310.586L308.583,310.586L308.583,318.82L278.358,318.82L278.358,345.307L315.733,345.307Z" style="fill:rgb(64,64,64);fill-rule:nonzero;"/>
                <path d="M335.72,306.957C336.912,305.621 338.176,304.411 339.512,303.328C340.848,302.245 342.265,301.315 343.764,300.538C345.263,299.762 346.852,299.166 348.531,298.751C350.21,298.335 352.024,298.128 353.974,298.128C356.972,298.128 359.617,298.624 361.91,299.617C364.203,300.61 366.117,302.019 367.652,303.842C369.186,305.666 370.351,307.86 371.145,310.424C371.94,312.988 372.337,315.822 372.337,318.928L372.337,353.865L362.641,353.865L362.641,318.928C362.641,314.775 361.693,311.552 359.797,309.259C357.902,306.966 355.022,305.82 351.158,305.82C348.305,305.82 345.642,306.506 343.168,307.878C340.695,309.25 338.411,311.11 336.316,313.457L336.316,353.865L326.62,353.865L326.62,298.995L332.416,298.995C333.788,298.995 334.637,299.663 334.962,300.999L335.72,306.957Z" style="fill:rgb(64,64,64);fill-rule:nonzero;"/>
                <path d="M406.191,327.053C408.141,327.053 409.856,326.782 411.337,326.24C412.817,325.699 414.063,324.94 415.074,323.965C416.086,322.99 416.844,321.826 417.349,320.472C417.855,319.117 418.108,317.628 418.108,316.003C418.108,312.645 417.088,309.972 415.047,307.986C413.007,306 410.055,305.007 406.191,305.007C402.291,305.007 399.321,306 397.281,307.986C395.24,309.972 394.22,312.645 394.22,316.003C394.22,317.628 394.482,319.117 395.006,320.472C395.529,321.826 396.297,322.99 397.308,323.965C398.319,324.94 399.565,325.699 401.045,326.24C402.526,326.782 404.241,327.053 406.191,327.053ZM423.579,356.845C423.579,355.508 423.199,354.425 422.441,353.595C421.683,352.764 420.663,352.114 419.381,351.645C418.099,351.175 416.609,350.841 414.912,350.642C413.215,350.444 411.418,350.29 409.522,350.182C407.627,350.074 405.704,349.965 403.754,349.857C401.804,349.749 399.926,349.568 398.12,349.315C396.098,350.254 394.446,351.437 393.164,352.863C391.882,354.29 391.241,355.96 391.241,357.874C391.241,359.101 391.557,360.248 392.189,361.313C392.821,362.379 393.787,363.299 395.087,364.076C396.387,364.852 398.021,365.466 399.989,365.917C401.957,366.369 404.277,366.595 406.949,366.595C409.549,366.595 411.879,366.36 413.937,365.89C415.995,365.421 417.738,364.753 419.164,363.886C420.59,363.02 421.683,361.99 422.441,360.799C423.199,359.607 423.579,358.289 423.579,356.845ZM433.383,301.161L433.383,304.736C433.383,305.928 432.624,306.686 431.108,307.011L424.879,307.824C426.106,310.207 426.72,312.843 426.72,315.732C426.72,318.404 426.206,320.833 425.177,323.017C424.147,325.202 422.73,327.071 420.924,328.624C419.119,330.176 416.952,331.368 414.424,332.199C411.897,333.029 409.152,333.445 406.191,333.445C403.627,333.445 401.208,333.138 398.933,332.524C397.777,333.246 396.892,334.013 396.279,334.826C395.665,335.638 395.358,336.46 395.358,337.29C395.358,338.59 395.89,339.574 396.956,340.242C398.021,340.91 399.42,341.389 401.154,341.678C402.887,341.967 404.864,342.147 407.085,342.22C409.306,342.292 411.581,342.409 413.91,342.572C416.239,342.734 418.514,343.014 420.735,343.411C422.956,343.808 424.933,344.458 426.666,345.361C428.399,346.264 429.799,347.51 430.864,349.099C431.929,350.688 432.462,352.746 432.462,355.274C432.462,357.621 431.875,359.896 430.702,362.099C429.528,364.301 427.84,366.26 425.637,367.976C423.434,369.691 420.735,371.063 417.539,372.092C414.343,373.122 410.741,373.636 406.733,373.636C402.724,373.636 399.222,373.239 396.224,372.445C393.227,371.65 390.736,370.585 388.749,369.249C386.763,367.913 385.274,366.369 384.281,364.617C383.288,362.866 382.791,361.033 382.791,359.12C382.791,356.411 383.64,354.118 385.337,352.24C387.034,350.363 389.363,348.864 392.324,347.745C390.699,347.022 389.408,346.056 388.452,344.847C387.495,343.637 387.016,342.003 387.016,339.945C387.016,339.15 387.161,338.329 387.449,337.48C387.738,336.631 388.181,335.783 388.777,334.934C389.372,334.085 390.104,333.282 390.97,332.524C391.837,331.765 392.848,331.097 394.004,330.52C391.295,329.003 389.183,326.99 387.666,324.48C386.149,321.97 385.391,319.054 385.391,315.732C385.391,313.06 385.906,310.631 386.935,308.447C387.964,306.262 389.399,304.402 391.241,302.867C393.083,301.333 395.277,300.15 397.822,299.32C400.368,298.489 403.158,298.074 406.191,298.074C408.574,298.074 410.795,298.335 412.854,298.859C414.912,299.383 416.79,300.15 418.487,301.161L433.383,301.161Z" style="fill:rgb(64,64,64);fill-rule:nonzero;"/>
                <rect x="443.729" y="274.078" width="9.642" height="79.788" style="fill:rgb(64,64,64);fill-rule:nonzero;"/>
                <path d="M479.154,298.995L479.154,353.865L469.512,353.865L469.512,298.995L479.154,298.995ZM481.212,281.77C481.212,282.708 481.022,283.584 480.643,284.397C480.264,285.209 479.758,285.931 479.127,286.563C478.495,287.195 477.754,287.692 476.906,288.053C476.057,288.414 475.163,288.595 474.224,288.595C473.286,288.595 472.41,288.414 471.597,288.053C470.785,287.692 470.072,287.195 469.458,286.563C468.844,285.931 468.356,285.209 467.995,284.397C467.634,283.584 467.454,282.708 467.454,281.77C467.454,280.831 467.634,279.937 467.995,279.088C468.356,278.24 468.844,277.499 469.458,276.867C470.072,276.235 470.785,275.739 471.597,275.378C472.41,275.017 473.286,274.836 474.224,274.836C475.163,274.836 476.057,275.017 476.906,275.378C477.754,275.739 478.495,276.235 479.127,276.867C479.758,277.499 480.264,278.24 480.643,279.088C481.022,279.937 481.212,280.831 481.212,281.77Z" style="fill:rgb(64,64,64);fill-rule:nonzero;"/>
                <path d="M526.929,308.04C526.495,308.835 525.827,309.232 524.924,309.232C524.383,309.232 523.769,309.033 523.083,308.636C522.397,308.239 521.557,307.797 520.564,307.309C519.571,306.822 518.388,306.37 517.016,305.955C515.644,305.54 514.019,305.332 512.141,305.332C510.516,305.332 509.054,305.54 507.754,305.955C506.454,306.37 505.343,306.939 504.422,307.661C503.502,308.383 502.797,309.223 502.31,310.18C501.822,311.137 501.579,312.175 501.579,313.295C501.579,314.703 501.985,315.876 502.797,316.815C503.61,317.754 504.684,318.567 506.02,319.253C507.356,319.939 508.873,320.544 510.57,321.067C512.267,321.591 514.01,322.151 515.797,322.747C517.585,323.342 519.327,324.001 521.024,324.724C522.722,325.446 524.238,326.349 525.574,327.432C526.911,328.515 527.985,329.842 528.797,331.413C529.61,332.984 530.016,334.871 530.016,337.074C530.016,339.601 529.565,341.94 528.662,344.088C527.759,346.237 526.423,348.097 524.654,349.667C522.884,351.238 520.717,352.475 518.154,353.378C515.59,354.281 512.629,354.732 509.27,354.732C505.442,354.732 501.976,354.109 498.87,352.863C495.765,351.617 493.129,350.02 490.962,348.07L493.237,344.386C493.526,343.917 493.869,343.556 494.266,343.303C494.663,343.05 495.169,342.924 495.783,342.924C496.433,342.924 497.119,343.176 497.841,343.682C498.563,344.188 499.439,344.747 500.468,345.361C501.497,345.975 502.752,346.535 504.233,347.04C505.713,347.546 507.555,347.799 509.758,347.799C511.636,347.799 513.279,347.555 514.687,347.067C516.095,346.58 517.269,345.921 518.208,345.09C519.147,344.26 519.842,343.303 520.293,342.22C520.745,341.136 520.97,339.981 520.97,338.753C520.97,337.236 520.564,335.981 519.752,334.988C518.939,333.995 517.865,333.147 516.529,332.442C515.192,331.738 513.667,331.124 511.952,330.601C510.236,330.077 508.485,329.526 506.697,328.949C504.91,328.371 503.158,327.712 501.443,326.972C499.728,326.231 498.202,325.301 496.866,324.182C495.53,323.063 494.456,321.681 493.643,320.038C492.831,318.395 492.424,316.4 492.424,314.053C492.424,311.958 492.858,309.945 493.724,308.013C494.591,306.081 495.855,304.384 497.516,302.922C499.177,301.459 501.217,300.295 503.637,299.428C506.056,298.561 508.819,298.128 511.924,298.128C515.536,298.128 518.777,298.697 521.647,299.834C524.518,300.972 527.001,302.533 529.095,304.52L526.929,308.04Z" style="fill:rgb(64,64,64);fill-rule:nonzero;"/>
                <path d="M551.574,306.307C553.922,303.815 556.522,301.829 559.374,300.349C562.227,298.868 565.513,298.128 569.233,298.128C572.23,298.128 574.875,298.624 577.168,299.617C579.461,300.61 581.375,302.019 582.91,303.842C584.445,305.666 585.609,307.86 586.404,310.424C587.198,312.988 587.595,315.822 587.595,318.928L587.595,353.865L577.899,353.865L577.899,318.928C577.899,314.775 576.952,311.552 575.056,309.259C573.16,306.966 570.28,305.82 566.416,305.82C563.563,305.82 560.9,306.506 558.427,307.878C555.953,309.25 553.669,311.11 551.574,313.457L551.574,353.865L541.879,353.865L541.879,274.078L551.574,274.078L551.574,306.307Z" style="fill:rgb(64,64,64);fill-rule:nonzero;"/>
            </g>
            <g transform="matrix(1,0,0,1,131.846,2350.16)">
                <path d="M311.843,353.865L301.98,353.865L301.98,322.518L274.734,322.518L274.734,353.865L264.822,353.865L264.822,282.772L274.734,282.772L274.734,314.949L301.98,314.949L301.98,282.772L311.843,282.772L311.843,353.865Z" style="fill:rgb(128,128,128);fill-rule:nonzero;"/>
                <path d="M322.488,324.129C322.488,317.13 324.319,311.369 327.981,306.844C331.643,302.319 336.664,300.057 343.044,300.057C349.392,300.057 354.405,302.311 358.083,306.819C361.762,311.328 363.601,317.098 363.601,324.129L363.601,330.867C363.601,337.931 361.77,343.701 358.108,348.177C354.446,352.653 349.441,354.891 343.093,354.891C336.68,354.891 331.643,352.653 327.981,348.177C324.319,343.701 322.488,337.931 322.488,330.867L322.488,324.129ZM332.4,330.867C332.4,335.685 333.279,339.64 335.037,342.733C336.794,345.825 339.48,347.371 343.093,347.371C346.609,347.371 349.254,345.825 351.028,342.733C352.802,339.64 353.689,335.685 353.689,330.867L353.689,324.129C353.689,319.376 352.802,315.446 351.028,312.337C349.254,309.228 346.593,307.674 343.044,307.674C339.464,307.674 336.794,309.22 335.037,312.313C333.279,315.405 332.4,319.344 332.4,324.129L332.4,330.867Z" style="fill:rgb(128,128,128);fill-rule:nonzero;"/>
                <path d="M412.283,336.727L412.576,336.727L419.558,301.033L429.031,301.033L416.921,353.865L408.767,353.865L399.294,318.758L399.001,318.758L389.675,353.865L381.472,353.865L369.363,301.033L378.835,301.033L385.964,336.434L386.257,336.434L395.632,301.033L402.761,301.033L412.283,336.727Z" style="fill:rgb(128,128,128);fill-rule:nonzero;"/>
                <path d="M485.574,353.865C485.216,352.661 484.923,351.481 484.695,350.325C484.467,349.17 484.32,348.006 484.255,346.834C482.79,349.21 480.951,351.147 478.738,352.645C476.524,354.142 474.066,354.891 471.365,354.891C466.905,354.891 463.414,353.483 460.891,350.667C458.368,347.851 457.107,344.083 457.107,339.363C457.107,334.318 458.824,330.355 462.258,327.474C465.692,324.593 470.518,323.152 476.736,323.152L484.109,323.152L484.109,317.733C484.109,314.51 483.393,311.995 481.96,310.189C480.528,308.382 478.494,307.479 475.857,307.479C473.481,307.479 471.568,308.292 470.12,309.92C468.671,311.548 467.947,313.582 467.947,316.024L458.523,315.975L458.376,315.682C458.214,311.613 459.841,307.991 463.259,304.818C466.677,301.644 471.088,300.057 476.492,300.057C481.7,300.057 485.924,301.595 489.163,304.671C492.401,307.747 494.021,312.134 494.021,317.83L494.021,342.342C494.021,344.393 494.143,346.37 494.387,348.275C494.631,350.179 495.03,352.042 495.583,353.865L485.574,353.865ZM473.611,347.274C475.922,347.274 478.03,346.59 479.934,345.223C481.838,343.856 483.23,342.147 484.109,340.096L484.109,329.305L476.589,329.305C473.562,329.305 471.21,330.273 469.534,332.21C467.857,334.147 467.019,336.515 467.019,339.315C467.019,341.691 467.589,343.611 468.728,345.076C469.867,346.541 471.495,347.274 473.611,347.274Z" style="fill:rgb(128,128,128);fill-rule:nonzero;"/>
                <path d="M528.054,309.383L523.415,309.139C521.365,309.139 519.664,309.757 518.313,310.994C516.962,312.231 515.928,313.973 515.212,316.219L515.212,353.865L505.3,353.865L505.3,301.033L514.333,301.033L515.066,308.992C516.173,306.193 517.621,304.004 519.412,302.425C521.202,300.846 523.269,300.057 525.613,300.057C526.264,300.057 526.931,300.114 527.615,300.228C528.298,300.342 528.835,300.48 529.226,300.643L528.054,309.383Z" style="fill:rgb(128,128,128);fill-rule:nonzero;"/>
                <path d="M554.372,354.891C548.09,354.891 543.061,352.71 539.285,348.348C535.509,343.986 533.621,338.403 533.621,331.6L533.621,323.885C533.621,316.984 535.468,311.287 539.163,306.795C542.857,302.303 547.553,300.057 553.249,300.057C559.239,300.057 563.845,302.099 567.068,306.185C570.29,310.27 571.902,315.763 571.902,322.664L571.902,329.5L543.484,329.5L543.484,331.6C543.484,336.157 544.485,339.925 546.487,342.903C548.489,345.882 551.329,347.371 555.007,347.371C557.742,347.371 560.085,346.94 562.038,346.077C563.992,345.215 565.847,343.953 567.605,342.293L570.73,348.445C569.07,350.333 566.84,351.88 564.04,353.084C561.241,354.289 558.018,354.891 554.372,354.891ZM553.249,307.674C550.385,307.674 548.09,309.066 546.365,311.849C544.639,314.632 543.679,318.156 543.484,322.42L562.087,322.42L562.087,320.418C562.087,316.675 561.339,313.615 559.841,311.238C558.344,308.862 556.147,307.674 553.249,307.674Z" style="fill:rgb(128,128,128);fill-rule:nonzero;"/>
                <path d="M617.312,335.652L618.044,339.119L618.337,339.119L628.494,301.033L639.285,301.033L620.779,362.068C619.542,365.714 617.865,368.815 615.749,371.37C613.634,373.926 610.59,375.203 606.619,375.203C605.805,375.203 604.934,375.114 604.006,374.935C603.079,374.756 602.159,374.552 601.247,374.324L602.322,367C602.68,367.065 603.168,367.13 603.787,367.195C604.405,367.261 604.893,367.293 605.251,367.293C607.172,367.293 608.694,366.471 609.817,364.827C610.94,363.183 611.811,361.238 612.429,358.992L614.187,353.621L597.878,301.033L608.621,301.033L617.312,335.652Z" style="fill:rgb(128,128,128);fill-rule:nonzero;"/>
                <path d="M643.337,324.129C643.337,317.13 645.168,311.369 648.83,306.844C652.493,302.319 657.514,300.057 663.894,300.057C670.242,300.057 675.255,302.311 678.933,306.819C682.611,311.328 684.451,317.098 684.451,324.129L684.451,330.867C684.451,337.931 682.62,343.701 678.957,348.177C675.295,352.653 670.29,354.891 663.943,354.891C657.53,354.891 652.493,352.653 648.83,348.177C645.168,343.701 643.337,337.931 643.337,330.867L643.337,324.129ZM653.249,330.867C653.249,335.685 654.128,339.64 655.886,342.733C657.644,345.825 660.33,347.371 663.943,347.371C667.458,347.371 670.103,345.825 671.877,342.733C673.651,339.64 674.538,335.685 674.538,330.867L674.538,324.129C674.538,319.376 673.651,315.446 671.877,312.337C670.103,309.228 667.442,307.674 663.894,307.674C660.313,307.674 657.644,309.22 655.886,312.313C654.128,315.405 653.249,319.344 653.249,324.129L653.249,330.867Z" style="fill:rgb(128,128,128);fill-rule:nonzero;"/>
                <path d="M721.755,346.785C720.356,349.389 718.565,351.391 716.384,352.791C714.203,354.191 711.697,354.891 708.865,354.891C704.08,354.891 700.352,353.052 697.683,349.373C695.014,345.695 693.679,339.982 693.679,332.234L693.679,301.033L703.542,301.033L703.542,332.332C703.542,337.736 704.185,341.569 705.471,343.831C706.757,346.094 708.686,347.225 711.257,347.225C713.699,347.225 715.741,346.655 717.385,345.516C719.029,344.376 720.339,342.749 721.316,340.633L721.316,301.033L731.228,301.033L731.228,353.865L722.39,353.865L721.755,346.785Z" style="fill:rgb(128,128,128);fill-rule:nonzero;"/>
                <path d="M751.247,333.943C751.28,329.614 751.736,326.505 752.615,324.617C753.494,322.729 755.463,320.272 758.523,317.244C760.834,314.315 762.6,311.67 763.821,309.31C765.041,306.95 765.652,304.175 765.652,300.984C765.652,297.404 764.911,294.612 763.43,292.61C761.949,290.609 759.841,289.608 757.107,289.608C754.828,289.608 752.875,290.527 751.247,292.366C749.62,294.206 748.806,296.753 748.806,300.008L739.285,300.008L739.187,299.715C739.089,294.083 740.725,289.681 744.094,286.507C747.463,283.333 751.801,281.746 757.107,281.746C762.869,281.746 767.385,283.455 770.657,286.873C773.928,290.291 775.564,294.946 775.564,300.838C775.564,305.07 774.579,308.911 772.61,312.361C770.64,315.812 768.028,319.214 764.773,322.567C763.178,324.227 762.177,325.814 761.77,327.327C761.363,328.841 761.16,331.046 761.16,333.943L751.247,333.943ZM761.355,353.865L751.199,353.865L751.199,344.197L761.355,344.197L761.355,353.865Z" style="fill:rgb(128,128,128);fill-rule:nonzero;"/>
            </g>
        </g>
        <g transform="matrix(1,0,0,1,1.36133,1.36133)">
            <g transform="matrix(1,0,0,1,2148.47,2349.44)">
                <path d="M311.892,353.865L302.029,353.865L302.029,290.389L274.734,290.389L274.734,353.865L264.822,353.865L264.822,282.772L311.892,282.772L311.892,353.865Z" style="fill:rgb(128,128,128);fill-rule:nonzero;"/>
                <path d="M339.285,301.033C337.397,305.363 335.907,309.684 334.817,313.997C333.726,318.31 333.132,322.648 333.035,327.01C333.035,332.967 333.71,337.833 335.061,341.609C336.412,345.386 338.536,347.192 341.433,347.029L341.726,347.078C344.265,347.241 346.324,345.98 347.903,343.294C349.482,340.609 350.271,336.336 350.271,330.477L350.271,315.291L360.525,315.291L360.525,330.477C360.525,336.336 361.298,340.609 362.844,343.294C364.39,345.98 366.449,347.241 369.021,347.078L369.314,347.029C372.211,347.192 374.335,345.394 375.686,341.634C377.037,337.874 377.712,332.999 377.712,327.01C377.582,322.615 376.972,318.253 375.881,313.924C374.791,309.595 373.318,305.298 371.462,301.033L381.277,301.033C383.197,304.647 384.735,308.561 385.891,312.776C387.047,316.992 387.624,321.736 387.624,327.01C387.624,335.376 386.184,342.114 383.303,347.225C380.422,352.335 375.841,354.891 369.558,354.891C366.205,354.891 363.324,353.979 360.915,352.156C358.507,350.333 356.651,347.632 355.349,344.051C354.047,347.632 352.191,350.333 349.783,352.156C347.374,353.979 344.509,354.891 341.189,354.891C334.874,354.891 330.292,352.335 327.444,347.225C324.595,342.114 323.171,335.376 323.171,327.01C323.171,321.704 323.741,316.935 324.88,312.703C326.02,308.471 327.566,304.582 329.519,301.033L339.285,301.033ZM354.714,276.473L364.626,276.473L356.667,293.856L351.785,293.856L354.714,276.473Z" style="fill:rgb(128,128,128);fill-rule:nonzero;"/>
                <path d="M415.847,300.057C421.153,300.057 425.434,301.774 428.689,305.208C431.944,308.642 433.523,313.338 433.425,319.295L433.328,319.539L424.343,319.539C424.343,315.926 423.619,313.045 422.17,310.897C420.722,308.748 418.614,307.674 415.847,307.674C412.364,307.674 409.792,309.489 408.132,313.118C406.472,316.748 405.642,321.232 405.642,326.57L405.642,328.426C405.642,333.504 406.667,337.654 408.718,340.877C410.769,344.1 413.943,346.053 418.24,346.736C423.188,347.485 426.842,348.763 429.202,350.569C431.562,352.376 432.742,355.184 432.742,358.992C432.677,362.606 431.496,365.796 429.202,368.563C426.907,371.33 424.018,373.332 420.535,374.568L416.97,368.172C418.663,367.326 420.136,366.194 421.389,364.778C422.642,363.362 423.269,361.629 423.269,359.578C423.269,357.983 422.699,356.754 421.56,355.892C420.421,355.029 418.647,354.386 416.238,353.963C409.434,353.019 404.316,350.342 400.881,345.931C397.447,341.52 395.73,335.685 395.73,328.426L395.73,326.57C395.73,318.953 397.504,312.63 401.052,307.601C404.6,302.571 409.532,300.057 415.847,300.057Z" style="fill:rgb(128,128,128);fill-rule:nonzero;"/>
                <path d="M463.406,339.119C463.406,336.092 464.154,333.528 465.652,331.429C467.149,329.329 469.33,327.759 472.195,326.717C469.656,325.578 467.686,324.007 466.287,322.005C464.887,320.003 464.187,317.781 464.187,315.34C464.187,310.522 465.896,306.787 469.314,304.134C472.732,301.481 477.354,300.154 483.181,300.154C488.357,300.154 492.711,301.57 496.243,304.402C499.774,307.234 501.459,310.913 501.296,315.438L501.199,315.731L491.726,315.731C491.726,313.322 490.88,311.344 489.187,309.798C487.494,308.252 485.378,307.479 482.839,307.479C479.91,307.479 477.72,308.26 476.272,309.822C474.823,311.385 474.099,313.322 474.099,315.633C474.099,318.074 474.807,319.995 476.223,321.395C477.639,322.794 479.779,323.494 482.644,323.494L490.701,323.494L490.701,330.379L482.644,330.379C479.584,330.379 477.265,331.079 475.686,332.479C474.107,333.878 473.318,336.011 473.318,338.875C473.318,341.414 474.148,343.498 475.808,345.125C477.468,346.753 479.812,347.567 482.839,347.567C485.736,347.567 488.064,346.688 489.822,344.93C491.58,343.172 492.458,341.007 492.458,338.436L501.931,338.436L502.029,338.729C502.159,343.904 500.344,347.876 496.584,350.643C492.825,353.41 488.357,354.793 483.181,354.793C477.354,354.793 472.602,353.401 468.923,350.618C465.245,347.835 463.406,344.002 463.406,339.119Z" style="fill:rgb(128,128,128);fill-rule:nonzero;"/>
                <path d="M523.269,301.082L523.269,339.901C523.269,342.635 523.619,344.539 524.319,345.613C525.019,346.688 526.02,347.225 527.322,347.225C528.07,347.225 528.705,347.151 529.226,347.005C529.747,346.859 530.43,346.606 531.277,346.248L532.742,352.986C531.472,353.703 530.251,354.199 529.08,354.476C527.908,354.752 526.589,354.891 525.124,354.891C521.283,354.891 518.362,353.67 516.36,351.229C514.358,348.787 513.357,344.897 513.357,339.559L513.357,301.082L523.269,301.082ZM518.142,276.522L528.054,276.522L520.095,293.904L515.212,293.904L518.142,276.522Z" style="fill:rgb(128,128,128);fill-rule:nonzero;"/>
                <path d="M582.449,308.699L570.828,308.699C573.367,310.945 575.393,313.777 576.907,317.195C578.42,320.613 579.177,324.341 579.177,328.377L579.177,329.647C579.177,336.841 577.354,342.846 573.708,347.664C570.063,352.482 565.147,354.891 558.962,354.891C552.55,354.891 547.52,352.409 543.874,347.444C540.229,342.48 538.406,336.059 538.406,328.182L538.406,326.863C538.406,319.279 540.229,313.078 543.874,308.26C547.52,303.442 552.533,301.033 558.913,301.033L582.449,301.033L582.449,308.699ZM548.269,328.182C548.269,333.813 549.148,338.419 550.906,342C552.663,345.581 555.349,347.371 558.962,347.371C562.38,347.371 564.952,345.573 566.677,341.976C568.402,338.379 569.265,333.781 569.265,328.182L569.265,326.863C569.265,321.623 568.402,317.285 566.677,313.851C564.952,310.416 562.364,308.699 558.913,308.699C555.333,308.699 552.663,310.416 550.906,313.851C549.148,317.285 548.269,321.623 548.269,326.863L548.269,328.182Z" style="fill:rgb(128,128,128);fill-rule:nonzero;"/>
                <path d="M626.101,301.082L626.101,339.119C626.101,342.049 626.37,344.083 626.907,345.223C627.444,346.362 628.217,346.932 629.226,346.932C629.421,346.932 629.608,346.907 629.788,346.859C629.967,346.81 630.17,346.736 630.398,346.639L631.326,353.572C630.479,354.061 629.657,354.402 628.86,354.598C628.062,354.793 627.175,354.891 626.199,354.891C623.92,354.891 622.016,354.28 620.486,353.06C618.956,351.839 617.833,349.927 617.117,347.322C615.717,349.796 614.008,351.676 611.99,352.962C609.971,354.248 607.628,354.891 604.958,354.891C599.457,354.891 595.177,352.539 592.117,347.835C589.057,343.131 587.527,336.889 587.527,329.109L587.527,328.084C587.527,319.621 589.057,312.833 592.117,307.723C595.177,302.612 599.473,300.057 605.007,300.057C607.579,300.057 609.841,300.683 611.794,301.937C613.747,303.19 615.424,305.005 616.824,307.381L617.605,301.082L626.101,301.082ZM597.488,329.109C597.488,334.676 598.277,339.111 599.856,342.415C601.435,345.719 603.949,347.371 607.4,347.371C609.451,347.371 611.2,346.745 612.649,345.491C614.097,344.238 615.277,342.456 616.189,340.145L616.189,339.119L616.189,315.535C615.245,313.094 614.065,311.173 612.649,309.774C611.233,308.374 609.516,307.674 607.497,307.674C604.08,307.674 601.557,309.562 599.929,313.338C598.302,317.114 597.488,322.029 597.488,328.084L597.488,329.109Z" style="fill:rgb(128,128,128);fill-rule:nonzero;"/>
                <path d="M649.246,301.082L649.246,339.901C649.246,342.635 649.595,344.539 650.295,345.613C650.995,346.688 651.996,347.225 653.298,347.225C654.047,347.225 654.682,347.151 655.203,347.005C655.723,346.859 656.407,346.606 657.253,346.248L658.718,352.986C657.449,353.703 656.228,354.199 655.056,354.476C653.884,354.752 652.566,354.891 651.101,354.891C647.26,354.891 644.338,353.67 642.336,351.229C640.334,348.787 639.333,344.897 639.333,339.559L639.333,301.082L649.246,301.082Z" style="fill:rgb(128,128,128);fill-rule:nonzero;"/>
                <path d="M675.124,333.943C675.157,329.614 675.613,326.505 676.492,324.617C677.371,322.729 679.34,320.272 682.4,317.244C684.711,314.315 686.477,311.67 687.698,309.31C688.918,306.95 689.529,304.175 689.529,300.984C689.529,297.404 688.788,294.612 687.307,292.61C685.826,290.609 683.718,289.608 680.984,289.608C678.705,289.608 676.752,290.527 675.124,292.366C673.497,294.206 672.683,296.753 672.683,300.008L663.162,300.008L663.064,299.715C662.966,294.083 664.602,289.681 667.971,286.507C671.34,283.333 675.678,281.746 680.984,281.746C686.746,281.746 691.262,283.455 694.534,286.873C697.805,290.291 699.441,294.946 699.441,300.838C699.441,305.07 698.456,308.911 696.487,312.361C694.517,315.812 691.905,319.214 688.65,322.567C687.055,324.227 686.054,325.814 685.647,327.327C685.24,328.841 685.037,331.046 685.037,333.943L675.124,333.943ZM685.232,353.865L675.076,353.865L675.076,344.197L685.232,344.197L685.232,353.865Z" style="fill:rgb(128,128,128);fill-rule:nonzero;"/>
            </g>
            <g transform="matrix(1,0,0,1,1160.08,2268.52)">
                <path d="M1398.78,302.871L1398.78,332.663C1394.88,335.479 1390.71,337.583 1386.29,338.973C1381.87,340.363 1377.02,341.059 1371.75,341.059C1365.5,341.059 1359.87,340.093 1354.85,338.161C1349.83,336.229 1345.54,333.52 1341.98,330.036C1338.43,326.551 1335.69,322.371 1333.78,317.496C1331.86,312.621 1330.91,307.259 1330.91,301.409C1330.91,295.486 1331.84,290.088 1333.69,285.213C1335.56,280.338 1338.2,276.158 1341.63,272.673C1345.06,269.188 1349.23,266.489 1354.14,264.575C1359.05,262.661 1364.54,261.704 1370.61,261.704C1373.68,261.704 1376.53,261.93 1379.17,262.382C1381.8,262.833 1384.24,263.483 1386.48,264.332C1388.72,265.18 1390.8,266.209 1392.71,267.419C1394.62,268.629 1396.41,269.992 1398.07,271.509L1395.09,276.275C1394.62,276.998 1394.02,277.458 1393.28,277.657C1392.54,277.855 1391.72,277.684 1390.81,277.142C1389.95,276.636 1388.95,276.023 1387.84,275.3C1386.71,274.578 1385.35,273.883 1383.75,273.215C1382.14,272.547 1380.24,271.978 1378.06,271.509C1375.87,271.039 1373.28,270.804 1370.29,270.804C1365.91,270.804 1361.96,271.518 1358.42,272.944C1354.88,274.37 1351.87,276.411 1349.38,279.065C1346.88,281.719 1344.97,284.933 1343.63,288.707C1342.3,292.48 1341.63,296.714 1341.63,301.409C1341.63,306.284 1342.33,310.644 1343.72,314.49C1345.11,318.336 1347.09,321.604 1349.67,324.294C1352.26,326.984 1355.39,329.034 1359.07,330.442C1362.76,331.85 1366.89,332.554 1371.48,332.554C1375.09,332.554 1378.29,332.148 1381.09,331.336C1383.89,330.523 1386.62,329.395 1389.3,327.95L1389.3,310.888L1377.22,310.888C1376.53,310.888 1375.98,310.689 1375.57,310.292C1375.15,309.895 1374.94,309.407 1374.94,308.829L1374.94,302.871L1398.78,302.871Z" style="fill:rgb(64,64,64);fill-rule:nonzero;"/>
                <path d="M1420.88,296.317C1422.61,292.561 1424.74,289.627 1427.27,287.515C1429.8,285.402 1432.88,284.346 1436.53,284.346C1437.69,284.346 1438.8,284.473 1439.86,284.725C1440.93,284.978 1441.88,285.375 1442.71,285.917L1442,293.121C1441.79,294.024 1441.24,294.475 1440.38,294.475C1439.87,294.475 1439.13,294.367 1438.16,294.15C1437.18,293.934 1436.08,293.825 1434.85,293.825C1433.12,293.825 1431.57,294.078 1430.22,294.584C1428.87,295.089 1427.66,295.838 1426.59,296.832C1425.53,297.825 1424.57,299.052 1423.72,300.515C1422.87,301.977 1422.1,303.648 1421.42,305.525L1421.42,340.192L1411.72,340.192L1411.72,285.321L1417.25,285.321C1418.3,285.321 1419.02,285.52 1419.41,285.917C1419.81,286.314 1420.08,287 1420.23,287.975L1420.88,296.317Z" style="fill:rgb(64,64,64);fill-rule:nonzero;"/>
                <path d="M1485.66,306.771C1485.66,304.532 1485.34,302.483 1484.71,300.623C1484.08,298.763 1483.16,297.157 1481.95,295.802C1480.74,294.448 1479.27,293.401 1477.54,292.661C1475.8,291.92 1473.83,291.55 1471.63,291.55C1467.01,291.55 1463.35,292.895 1460.66,295.586C1457.97,298.276 1456.3,302.004 1455.65,306.771L1485.66,306.771ZM1493.46,332.5C1492.27,333.945 1490.84,335.2 1489.18,336.265C1487.52,337.33 1485.74,338.206 1483.85,338.892C1481.95,339.578 1479.99,340.093 1477.97,340.436C1475.95,340.779 1473.94,340.95 1471.96,340.95C1468.16,340.95 1464.67,340.309 1461.47,339.027C1458.28,337.745 1455.52,335.868 1453.19,333.394C1450.86,330.92 1449.04,327.86 1447.74,324.213C1446.44,320.566 1445.79,316.377 1445.79,311.646C1445.79,307.818 1446.38,304.243 1447.55,300.921C1448.73,297.599 1450.41,294.719 1452.62,292.282C1454.82,289.844 1457.51,287.93 1460.69,286.54C1463.87,285.15 1467.44,284.454 1471.41,284.454C1474.7,284.454 1477.74,285.005 1480.54,286.107C1483.34,287.208 1485.76,288.797 1487.8,290.873C1489.84,292.95 1491.44,295.513 1492.59,298.565C1493.75,301.616 1494.33,305.092 1494.33,308.992C1494.33,310.509 1494.16,311.52 1493.84,312.025C1493.51,312.531 1492.9,312.784 1492,312.784L1455.33,312.784C1455.43,316.25 1455.91,319.266 1456.76,321.829C1457.61,324.393 1458.79,326.533 1460.31,328.248C1461.83,329.963 1463.63,331.245 1465.73,332.094C1467.82,332.943 1470.17,333.367 1472.77,333.367C1475.19,333.367 1477.27,333.087 1479.02,332.527C1480.78,331.968 1482.28,331.363 1483.55,330.713C1484.81,330.063 1485.87,329.458 1486.72,328.898C1487.57,328.338 1488.3,328.059 1488.91,328.059C1489.7,328.059 1490.32,328.366 1490.75,328.979L1493.46,332.5Z" style="fill:rgb(64,64,64);fill-rule:nonzero;"/>
                <path d="M1542.86,306.771C1542.86,304.532 1542.54,302.483 1541.91,300.623C1541.28,298.763 1540.36,297.157 1539.15,295.802C1537.94,294.448 1536.47,293.401 1534.74,292.661C1533,291.92 1531.03,291.55 1528.83,291.55C1524.21,291.55 1520.55,292.895 1517.86,295.586C1515.17,298.276 1513.5,302.004 1512.85,306.771L1542.86,306.771ZM1550.66,332.5C1549.47,333.945 1548.04,335.2 1546.38,336.265C1544.72,337.33 1542.94,338.206 1541.05,338.892C1539.15,339.578 1537.19,340.093 1535.17,340.436C1533.15,340.779 1531.14,340.95 1529.16,340.95C1525.36,340.95 1521.87,340.309 1518.67,339.027C1515.48,337.745 1512.72,335.868 1510.39,333.394C1508.06,330.92 1506.24,327.86 1504.94,324.213C1503.64,320.566 1502.99,316.377 1502.99,311.646C1502.99,307.818 1503.58,304.243 1504.75,300.921C1505.93,297.599 1507.62,294.719 1509.82,292.282C1512.02,289.844 1514.71,287.93 1517.89,286.54C1521.07,285.15 1524.64,284.454 1528.61,284.454C1531.9,284.454 1534.94,285.005 1537.74,286.107C1540.54,287.208 1542.96,288.797 1545,290.873C1547.04,292.95 1548.64,295.513 1549.79,298.565C1550.95,301.616 1551.53,305.092 1551.53,308.992C1551.53,310.509 1551.36,311.52 1551.04,312.025C1550.71,312.531 1550.1,312.784 1549.2,312.784L1512.53,312.784C1512.63,316.25 1513.11,319.266 1513.96,321.829C1514.81,324.393 1515.99,326.533 1517.51,328.248C1519.03,329.963 1520.83,331.245 1522.93,332.094C1525.02,332.943 1527.37,333.367 1529.97,333.367C1532.39,333.367 1534.47,333.087 1536.22,332.527C1537.98,331.968 1539.48,331.363 1540.75,330.713C1542.01,330.063 1543.07,329.458 1543.92,328.898C1544.77,328.338 1545.5,328.059 1546.11,328.059C1546.9,328.059 1547.52,328.366 1547.95,328.979L1550.66,332.5Z" style="fill:rgb(64,64,64);fill-rule:nonzero;"/>
                <path d="M1573.03,260.404L1573.03,307.367L1575.52,307.367C1576.25,307.367 1576.85,307.268 1577.34,307.069C1577.82,306.87 1578.34,306.464 1578.88,305.85L1596.21,287.271C1596.72,286.657 1597.25,286.179 1597.81,285.836C1598.37,285.493 1599.12,285.321 1600.06,285.321L1608.78,285.321L1588.58,306.825C1587.6,308.053 1586.55,309.01 1585.43,309.696C1586.09,310.129 1586.67,310.626 1587.19,311.186C1587.72,311.745 1588.22,312.386 1588.68,313.109L1610.13,340.192L1601.52,340.192C1600.69,340.192 1599.98,340.057 1599.38,339.786C1598.79,339.515 1598.27,339.018 1597.84,338.296L1579.8,315.817C1579.26,315.059 1578.73,314.562 1578.2,314.327C1577.68,314.093 1576.88,313.975 1575.79,313.975L1573.03,313.975L1573.03,340.192L1563.34,340.192L1563.34,260.404L1573.03,260.404Z" style="fill:rgb(64,64,64);fill-rule:nonzero;"/>
            </g>
        </g>
        <g transform="matrix(1,0,0,1,-14.3488,-9.09495e-13)">
            <g transform="matrix(0.917803,6.388e-32,0,0.075,-1487.55,2368.41)">
                <path d="M2700,4005L2700,4200L2700,3900L2700,3600L2700,3795L4150.97,3795L4150.97,3600L4200,3900L4150.97,4200L4150.97,4005L2700,4005Z" style="fill:rgb(103,103,103);"/>
            </g>
            <g transform="matrix(-0.922454,1.90024e-16,-5.46032e-18,-0.075,4857.85,2908.41)">
                <path d="M2700,4005L2700,3795L4151.22,3795L4151.22,3600L4200,3900L4151.22,4200L4151.22,4005L2700,4005Z" style="fill:rgb(103,103,103);"/>
            </g>
        </g>
        <g transform="matrix(2.02767,0,0,0.801731,-253.83,2248.16)">
            <path d="M1151.18,376.569C1151.18,359.359 1145.66,345.387 1138.85,345.387L764.036,345.387C757.232,345.387 751.707,359.359 751.707,376.569L751.707,596.944C751.707,614.154 757.232,628.126 764.036,628.126L1138.85,628.126C1145.66,628.126 1151.18,614.154 1151.18,596.944L1151.18,376.569Z" style="fill:rgb(235,235,235);"/>
            <clipPath id="_clip1">
                <path d="M1151.18,376.569C1151.18,359.359 1145.66,345.387 1138.85,345.387L764.036,345.387C757.232,345.387 751.707,359.359 751.707,376.569L751.707,596.944C751.707,614.154 757.232,628.126 764.036,628.126L1138.85,628.126C1145.66,628.126 1151.18,614.154 1151.18,596.944L1151.18,376.569Z"/>
            </clipPath>
            <g clip-path="url(#_clip1)">
                <g transform="matrix(1.11738,0,0,2.82597,485.701,-455.892)">
                    <path d="M313.265,307.593L313.265,353.865L305.681,353.865L305.681,323.977C305.681,322.783 305.745,321.492 305.873,320.105L291.889,346.377C291.228,347.636 290.214,348.265 288.849,348.265L287.633,348.265C286.268,348.265 285.254,347.636 284.593,346.377L270.449,320.009C270.513,320.713 270.566,321.407 270.609,322.089C270.652,322.772 270.673,323.401 270.673,323.977L270.673,353.865L263.089,353.865L263.089,307.593L269.585,307.593C269.969,307.593 270.3,307.604 270.577,307.625C270.854,307.647 271.105,307.7 271.329,307.785C271.553,307.871 271.756,308.009 271.937,308.201C272.118,308.393 272.294,308.649 272.465,308.969L286.321,334.665C286.684,335.348 287.02,336.052 287.329,336.777C287.638,337.503 287.942,338.249 288.241,339.017C288.54,338.228 288.849,337.465 289.169,336.729C289.489,335.993 289.83,335.284 290.193,334.601L303.857,308.969C304.028,308.649 304.209,308.393 304.401,308.201C304.593,308.009 304.801,307.871 305.025,307.785C305.249,307.7 305.5,307.647 305.777,307.625C306.054,307.604 306.385,307.593 306.769,307.593L313.265,307.593Z" style="fill:rgb(54,125,162);fill-rule:nonzero;"/>
                    <path d="M355.889,314.665L341.937,314.665L341.937,353.865L333.329,353.865L333.329,314.665L319.377,314.665L319.377,307.593L355.889,307.593L355.889,314.665Z" style="fill:rgb(54,125,162);fill-rule:nonzero;"/>
                    <path d="M400.209,316.009C399.953,316.457 399.681,316.783 399.393,316.985C399.105,317.188 398.748,317.289 398.321,317.289C397.873,317.289 397.388,317.124 396.865,316.793C396.342,316.463 395.718,316.095 394.993,315.689C394.268,315.284 393.42,314.916 392.449,314.585C391.478,314.255 390.332,314.089 389.009,314.089C387.814,314.089 386.769,314.233 385.873,314.521C384.977,314.809 384.225,315.209 383.617,315.721C383.009,316.233 382.556,316.847 382.257,317.561C381.958,318.276 381.809,319.06 381.809,319.913C381.809,321.001 382.113,321.908 382.721,322.633C383.329,323.359 384.134,323.977 385.137,324.489C386.14,325.001 387.281,325.46 388.561,325.865C389.841,326.271 391.153,326.703 392.497,327.161C393.841,327.62 395.153,328.153 396.433,328.761C397.713,329.369 398.854,330.137 399.857,331.065C400.86,331.993 401.665,333.129 402.273,334.473C402.881,335.817 403.185,337.449 403.185,339.369C403.185,341.46 402.828,343.417 402.113,345.241C401.398,347.065 400.353,348.655 398.977,350.009C397.601,351.364 395.921,352.431 393.937,353.209C391.953,353.988 389.681,354.377 387.121,354.377C385.649,354.377 384.198,354.233 382.769,353.945C381.34,353.657 379.969,353.247 378.657,352.713C377.345,352.18 376.113,351.54 374.961,350.793C373.809,350.047 372.785,349.215 371.889,348.297L374.417,344.169C374.63,343.871 374.908,343.62 375.249,343.417C375.59,343.215 375.953,343.113 376.337,343.113C376.87,343.113 377.446,343.332 378.065,343.769C378.684,344.207 379.42,344.692 380.273,345.225C381.126,345.759 382.124,346.244 383.265,346.681C384.406,347.119 385.777,347.337 387.377,347.337C389.83,347.337 391.729,346.756 393.073,345.593C394.417,344.431 395.089,342.761 395.089,340.585C395.089,339.369 394.785,338.377 394.177,337.609C393.569,336.841 392.764,336.196 391.761,335.673C390.758,335.151 389.617,334.708 388.337,334.345C387.057,333.983 385.756,333.588 384.433,333.161C383.11,332.735 381.809,332.223 380.529,331.625C379.249,331.028 378.108,330.249 377.105,329.289C376.102,328.329 375.297,327.129 374.689,325.689C374.081,324.249 373.777,322.473 373.777,320.361C373.777,318.676 374.113,317.033 374.785,315.433C375.457,313.833 376.433,312.415 377.713,311.177C378.993,309.94 380.572,308.948 382.449,308.201C384.326,307.455 386.481,307.081 388.913,307.081C391.644,307.081 394.161,307.508 396.465,308.361C398.769,309.215 400.732,310.409 402.353,311.945L400.209,316.009Z" style="fill:rgb(54,125,162);fill-rule:nonzero;"/>
                    <path d="M437.617,321.033L419.729,362.889C419.494,363.444 419.19,363.865 418.817,364.153C418.444,364.441 417.873,364.585 417.105,364.585L411.217,364.585L417.361,351.401L404.081,321.033L411.025,321.033C411.644,321.033 412.129,321.183 412.481,321.481C412.833,321.78 413.094,322.121 413.265,322.505L420.241,339.529C420.476,340.105 420.673,340.681 420.833,341.257C420.993,341.833 421.148,342.42 421.297,343.017C421.489,342.42 421.681,341.828 421.873,341.241C422.065,340.655 422.278,340.073 422.513,339.497L429.105,322.505C429.276,322.079 429.558,321.727 429.953,321.449C430.348,321.172 430.79,321.033 431.281,321.033L437.617,321.033Z" style="fill:rgb(54,125,162);fill-rule:nonzero;"/>
                    <path d="M460.913,327.433C460.7,327.775 460.476,328.015 460.241,328.153C460.006,328.292 459.708,328.361 459.345,328.361C458.961,328.361 458.55,328.255 458.113,328.041C457.676,327.828 457.169,327.588 456.593,327.321C456.017,327.055 455.361,326.815 454.625,326.601C453.889,326.388 453.02,326.281 452.017,326.281C450.46,326.281 449.238,326.612 448.353,327.273C447.468,327.935 447.025,328.799 447.025,329.865C447.025,330.569 447.254,331.161 447.713,331.641C448.172,332.121 448.78,332.543 449.537,332.905C450.294,333.268 451.153,333.593 452.113,333.881C453.073,334.169 454.049,334.484 455.041,334.825C456.033,335.167 457.009,335.556 457.969,335.993C458.929,336.431 459.788,336.985 460.545,337.657C461.302,338.329 461.91,339.135 462.369,340.073C462.828,341.012 463.057,342.143 463.057,343.465C463.057,345.044 462.774,346.5 462.209,347.833C461.644,349.167 460.806,350.319 459.697,351.289C458.588,352.26 457.217,353.017 455.585,353.561C453.953,354.105 452.07,354.377 449.937,354.377C448.806,354.377 447.702,354.276 446.625,354.073C445.548,353.871 444.513,353.588 443.521,353.225C442.529,352.863 441.612,352.436 440.769,351.945C439.926,351.455 439.185,350.921 438.545,350.345L440.369,347.337C440.604,346.975 440.881,346.697 441.201,346.505C441.521,346.313 441.926,346.217 442.417,346.217C442.908,346.217 443.372,346.356 443.809,346.633C444.246,346.911 444.753,347.209 445.329,347.529C445.905,347.849 446.582,348.148 447.361,348.425C448.14,348.703 449.126,348.841 450.321,348.841C451.26,348.841 452.065,348.729 452.737,348.505C453.409,348.281 453.964,347.988 454.401,347.625C454.838,347.263 455.158,346.841 455.361,346.361C455.564,345.881 455.665,345.385 455.665,344.873C455.665,344.105 455.436,343.476 454.977,342.985C454.518,342.495 453.91,342.068 453.153,341.705C452.396,341.343 451.532,341.017 450.561,340.729C449.59,340.441 448.598,340.127 447.585,339.785C446.572,339.444 445.58,339.044 444.609,338.585C443.638,338.127 442.774,337.545 442.017,336.841C441.26,336.137 440.652,335.273 440.193,334.249C439.734,333.225 439.505,331.988 439.505,330.537C439.505,329.193 439.772,327.913 440.305,326.697C440.838,325.481 441.622,324.42 442.657,323.513C443.692,322.607 444.982,321.881 446.529,321.337C448.076,320.793 449.862,320.521 451.889,320.521C454.15,320.521 456.209,320.895 458.065,321.641C459.921,322.388 461.468,323.369 462.705,324.585L460.913,327.433Z" style="fill:rgb(54,125,162);fill-rule:nonzero;"/>
                    <path d="M479.953,354.377C477.094,354.377 474.902,353.572 473.377,351.961C471.852,350.351 471.089,348.127 471.089,345.289L471.089,326.953L467.729,326.953C467.302,326.953 466.94,326.815 466.641,326.537C466.342,326.26 466.193,325.844 466.193,325.289L466.193,322.153L471.473,321.289L473.137,312.329C473.244,311.903 473.446,311.572 473.745,311.337C474.044,311.103 474.428,310.985 474.897,310.985L478.993,310.985L478.993,321.321L487.761,321.321L487.761,326.953L478.993,326.953L478.993,344.745C478.993,345.769 479.244,346.569 479.745,347.145C480.246,347.721 480.934,348.009 481.809,348.009C482.3,348.009 482.71,347.951 483.041,347.833C483.372,347.716 483.66,347.593 483.905,347.465C484.15,347.337 484.369,347.215 484.561,347.097C484.753,346.98 484.945,346.921 485.137,346.921C485.372,346.921 485.564,346.98 485.713,347.097C485.862,347.215 486.022,347.391 486.193,347.625L488.561,351.465C487.409,352.425 486.086,353.151 484.593,353.641C483.1,354.132 481.553,354.377 479.953,354.377Z" style="fill:rgb(54,125,162);fill-rule:nonzero;"/>
                    <path d="M513.713,333.673C513.713,332.649 513.569,331.684 513.281,330.777C512.993,329.871 512.561,329.076 511.985,328.393C511.409,327.711 510.678,327.172 509.793,326.777C508.908,326.383 507.878,326.185 506.705,326.185C504.422,326.185 502.625,326.836 501.313,328.137C500.001,329.439 499.164,331.284 498.801,333.673L513.713,333.673ZM498.641,338.441C498.769,340.127 499.068,341.583 499.537,342.809C500.006,344.036 500.625,345.049 501.393,345.849C502.161,346.649 503.073,347.247 504.129,347.641C505.185,348.036 506.353,348.233 507.633,348.233C508.913,348.233 510.017,348.084 510.945,347.785C511.873,347.487 512.684,347.156 513.377,346.793C514.07,346.431 514.678,346.1 515.201,345.801C515.724,345.503 516.23,345.353 516.721,345.353C517.382,345.353 517.873,345.599 518.193,346.089L520.465,348.969C519.59,349.993 518.609,350.852 517.521,351.545C516.433,352.239 515.297,352.793 514.113,353.209C512.929,353.625 511.724,353.919 510.497,354.089C509.27,354.26 508.081,354.345 506.929,354.345C504.646,354.345 502.524,353.967 500.561,353.209C498.598,352.452 496.892,351.332 495.441,349.849C493.99,348.367 492.849,346.532 492.017,344.345C491.185,342.159 490.769,339.625 490.769,336.745C490.769,334.505 491.132,332.399 491.857,330.425C492.582,328.452 493.622,326.735 494.977,325.273C496.332,323.812 497.985,322.655 499.937,321.801C501.889,320.948 504.092,320.521 506.545,320.521C508.614,320.521 510.524,320.852 512.273,321.513C514.022,322.175 515.526,323.14 516.785,324.409C518.044,325.679 519.03,327.236 519.745,329.081C520.46,330.927 520.817,333.033 520.817,335.401C520.817,336.596 520.689,337.401 520.433,337.817C520.177,338.233 519.686,338.441 518.961,338.441L498.641,338.441Z" style="fill:rgb(54,125,162);fill-rule:nonzero;"/>
                    <path d="M526.737,353.865L526.737,321.033L531.569,321.033C532.593,321.033 533.265,321.513 533.585,322.473L534.097,324.905C534.673,324.265 535.276,323.679 535.905,323.145C536.534,322.612 537.206,322.153 537.921,321.769C538.636,321.385 539.404,321.081 540.225,320.857C541.046,320.633 541.948,320.521 542.929,320.521C544.998,320.521 546.7,321.081 548.033,322.201C549.366,323.321 550.364,324.809 551.025,326.665C551.537,325.577 552.177,324.644 552.945,323.865C553.713,323.087 554.556,322.452 555.473,321.961C556.39,321.471 557.366,321.108 558.401,320.873C559.436,320.639 560.476,320.521 561.521,320.521C563.334,320.521 564.945,320.799 566.353,321.353C567.761,321.908 568.945,322.719 569.905,323.785C570.865,324.852 571.596,326.153 572.097,327.689C572.598,329.225 572.849,330.985 572.849,332.969L572.849,353.865L564.945,353.865L564.945,332.969C564.945,330.879 564.486,329.305 563.569,328.249C562.652,327.193 561.308,326.665 559.537,326.665C558.726,326.665 557.974,326.804 557.281,327.081C556.588,327.359 555.98,327.759 555.457,328.281C554.934,328.804 554.524,329.46 554.225,330.249C553.926,331.039 553.777,331.945 553.777,332.969L553.777,353.865L545.841,353.865L545.841,332.969C545.841,330.772 545.398,329.172 544.513,328.169C543.628,327.167 542.332,326.665 540.625,326.665C539.473,326.665 538.401,326.948 537.409,327.513C536.417,328.079 535.494,328.852 534.641,329.833L534.641,353.865L526.737,353.865Z" style="fill:rgb(54,125,162);fill-rule:nonzero;"/>
                </g>
            </g>
        </g>
    </g>
</svg>
