<?xml version="1.0" encoding="UTF-8" standalone="no"?>
<!DOCTYPE svg PUBLIC "-//W3C//DTD SVG 1.1//EN" "http://www.w3.org/Graphics/SVG/1.1/DTD/svg11.dtd">
<svg width="100%" height="100%" viewBox="-30 -30 1252 663" version="1.1" xmlns="http://www.w3.org/2000/svg" xmlns:xlink="http://www.w3.org/1999/xlink" xml:space="preserve" xmlns:serif="http://www.serif.com/" style="fill-rule:evenodd;clip-rule:evenodd;stroke-linecap:round;stroke-linejoin:round;stroke-miterlimit:10;">
    <g>
        <text x="41.34px" y="35.352px" style="font-family:'AGaramondPro-Regular', 'Adobe Garamond Pro', serif;font-size:48px;fill:rgb(64,64,64);">E<tspan x="69.084px " y="35.352px ">n</tspan>glish</text>
        <text x="39.598px" y="66.862px" style="font-family:'RobotoCondensed-Regular', 'Roboto Condensed';font-stretch:condensed;font-size:27px;fill:rgb(166,166,166);">How ar<tspan x="112.953px " y="66.862px ">e</tspan> y<tspan x="142.657px " y="66.862px ">o</tspan>u?</text>
        <text x="27.468px" y="246.362px" style="font-family:'AGaramondPro-Regular', 'Adobe Garamond Pro', serif;font-size:48px;fill:rgb(64,64,64);">G<tspan x="63.036px " y="246.362px ">e</tspan>rman</text>
        <text x="14.127px" y="279.292px" style="font-family:'RobotoCondensed-Regular', 'Roboto Condensed';font-stretch:condensed;font-size:27px;fill:rgb(166,166,166);">Wie geht es dir?</text>
        <text x="23.213px" y="565.262px" style="font-family:'AGaramondPro-Regular', 'Adobe Garamond Pro', serif;font-size:48px;fill:rgb(64,64,64);">J<tspan x="38.333px " y="565.262px ">a</tspan>panese</text>
        <text x="5.963px" y="597.122px" style="font-family:'STSongti-SC-Regular', 'Songti SC';font-size:27px;fill:rgb(166,166,166);">お元気ですか？</text>
    </g>
    <text x="60.151px" y="387.882px" style="font-family:'RobotoCondensed-Regular', 'Roboto Condensed';font-stretch:condensed;font-size:27px;fill:rgb(166,166,166);">Πώς είσαι?</text>
    <text x="67.148px" y="353.85px" style="font-family:'AGaramondPro-Regular', 'Adobe Garamond Pro', serif;font-size:48px;fill:rgb(64,64,64);">G<tspan x="101.852px 117.308px " y="353.85px 353.85px ">re</tspan>ek</text>
    <g>
        <text x="59.32px" y="491.916px" style="font-family:'ITFDevanagari-Book', 'ITF Devanagari';font-size:27px;fill:rgb(166,166,166);">क</text>
        <text x="72.469px" y="491.916px" style="font-family:'ITFDevanagari-Book', 'ITF Devanagari';font-size:27px;fill:rgb(166,166,166);">्</text>
        <text x="98.578px" y="491.916px" style="font-family:'ITFDevanagari-Book', 'ITF Devanagari';font-size:27px;fill:rgb(166,166,166);">या</text>
    </g>
    <g>
        <text x="108.536px" y="491.916px" style="font-family:'ITFDevanagari-Book', 'ITF Devanagari';font-size:27px;fill:rgb(166,166,166);">हाल <tspan x="155.404px " y="491.916px ">ह</tspan></text>
        <text x="168.283px" y="491.916px" style="font-family:'Charter-Roman', 'Charter', serif;font-size:27px;fill:rgb(166,166,166);">?</text>
        <text x="168.796px" y="491.916px" style="font-family:'ITFDevanagari-Book', 'ITF Devanagari';font-size:27px;fill:rgb(166,166,166);">ै</text>
    </g>
    <text x="68.268px" y="462.27px" style="font-family:'AGaramondPro-Regular', 'Adobe Garamond Pro', serif;font-size:48px;fill:rgb(64,64,64);">H<tspan x="106.092px " y="462.27px ">i</tspan>ndi</text>
    <text x="85.829px" y="174.925px" style="font-family:'STHeitiSC-Medium', 'Heiti SC';font-size:27px;fill:rgb(166,166,166);">你好吗？</text>
    <text x="30.989px" y="141.423px" style="font-family:'AGaramondPro-Regular', 'Adobe Garamond Pro', serif;font-size:48px;fill:rgb(64,64,64);">Chinese</text>
    <g>
        <text x="1002.77px" y="35.352px" style="font-family:'AGaramondPro-Regular', 'Adobe Garamond Pro', serif;font-size:48px;fill:rgb(64,64,64);">E<tspan x="1030.51px " y="35.352px ">n</tspan>glish</text>
        <text x="1002.32px" y="66.862px" style="font-family:'RobotoCondensed-Regular', 'Roboto Condensed';font-stretch:condensed;font-size:27px;fill:rgb(166,166,166);">How ar<tspan x="1075.67px " y="66.862px ">e</tspan> y<tspan x="1105.38px " y="66.862px ">o</tspan>u?</text>
        <text x="1001.97px" y="246.362px" style="font-family:'AGaramondPro-Regular', 'Adobe Garamond Pro', serif;font-size:48px;fill:rgb(64,64,64);">G<tspan x="1037.54px " y="246.362px ">e</tspan>rman</text>
        <text x="1003.64px" y="279.292px" style="font-family:'RobotoCondensed-Regular', 'Roboto Condensed';font-stretch:condensed;font-size:27px;fill:rgb(166,166,166);">Wie geht es dir?</text>
    </g>
    <g>
        <text x="1006px" y="565.261px" style="font-family:'AGaramondPro-Regular', 'Adobe Garamond Pro', serif;font-size:48px;fill:rgb(64,64,64);">J<tspan x="1021.12px " y="565.261px ">a</tspan>panese</text>
        <text x="1001.23px" y="597.121px" style="font-family:'STSongti-SC-Regular', 'Songti SC';font-size:27px;fill:rgb(166,166,166);">お元気ですか？</text>
    </g>
    <text x="1002.32px" y="387.882px" style="font-family:'RobotoCondensed-Regular', 'Roboto Condensed';font-stretch:condensed;font-size:27px;fill:rgb(166,166,166);">Πώς είσαι?</text>
    <text x="1001.97px" y="353.85px" style="font-family:'AGaramondPro-Regular', 'Adobe Garamond Pro', serif;font-size:48px;fill:rgb(64,64,64);">G<tspan x="1036.67px 1052.13px " y="353.85px 353.85px ">re</tspan>ek</text>
    <g>
        <text x="1005.47px" y="491.916px" style="font-family:'ITFDevanagari-Book', 'ITF Devanagari';font-size:27px;fill:rgb(166,166,166);">क</text>
        <text x="1018.62px" y="491.916px" style="font-family:'ITFDevanagari-Book', 'ITF Devanagari';font-size:27px;fill:rgb(166,166,166);">्</text>
        <text x="1044.73px" y="491.916px" style="font-family:'ITFDevanagari-Book', 'ITF Devanagari';font-size:27px;fill:rgb(166,166,166);">या</text>
    </g>
    <g>
        <text x="1054.69px" y="491.916px" style="font-family:'ITFDevanagari-Book', 'ITF Devanagari';font-size:27px;fill:rgb(166,166,166);">हाल <tspan x="1101.56px " y="491.916px ">ह</tspan></text>
        <text x="1114.44px" y="491.916px" style="font-family:'Charter-Roman', 'Charter', serif;font-size:27px;fill:rgb(166,166,166);">?</text>
        <text x="1114.95px" y="491.916px" style="font-family:'ITFDevanagari-Book', 'ITF Devanagari';font-size:27px;fill:rgb(166,166,166);">ै</text>
    </g>
    <text x="1002.29px" y="462.27px" style="font-family:'AGaramondPro-Regular', 'Adobe Garamond Pro', serif;font-size:48px;fill:rgb(64,64,64);">H<tspan x="1040.11px " y="462.27px ">i</tspan>ndi</text>
    <text x="1002.85px" y="174.925px" style="font-family:'STHeitiSC-Medium', 'Heiti SC';font-size:27px;fill:rgb(166,166,166);">你好吗？</text>
    <text x="1002.07px" y="141.423px" style="font-family:'AGaramondPro-Regular', 'Adobe Garamond Pro', serif;font-size:48px;fill:rgb(64,64,64);">Chinese</text>
    <g transform="matrix(0.990665,0.136316,0.136316,-0.990665,-49.7941,517.98)">
        <path d="M205.055,405.715L975.773,405.715" style="fill:none;fill-rule:nonzero;stroke:rgb(103,103,103);stroke-width:4.5px;"/>
    </g>
    <g transform="matrix(0.991557,0.129674,0.129674,-0.991557,-60.9115,521.398)">
        <path d="M205.401,508.172L975.427,508.172" style="fill:none;fill-rule:nonzero;stroke:rgb(103,103,103);stroke-width:4.5px;"/>
    </g>
    <g transform="matrix(0.965822,0.259205,0.259205,-0.965822,-97.9257,433.639)">
        <path d="M195.142,455.642L985.686,455.642" style="fill:none;fill-rule:nonzero;stroke:rgb(103,103,103);stroke-width:4.5px;"/>
    </g>
    <g transform="matrix(0.928028,0.372511,0.372511,-0.928028,-108.321,353.176)">
        <path d="M179.045,404.859L1001.78,404.859" style="fill:none;fill-rule:nonzero;stroke:rgb(103,103,103);stroke-width:4.5px;"/>
    </g>
    <g transform="matrix(0.879725,0.475483,0.475483,-0.879725,-96.2436,279.211)">
        <path d="M156.458,351.76L1024.37,351.76" style="fill:none;fill-rule:nonzero;stroke:rgb(103,103,103);stroke-width:4.5px;"/>
    </g>
    <g transform="matrix(0.828691,0.559706,0.559706,-0.828691,-66.91,220.356)">
        <path d="M129.733,300.252L1051.1,300.252" style="fill:none;fill-rule:nonzero;stroke:rgb(103,103,103);stroke-width:4.5px;"/>
    </g>
    <g transform="matrix(-0.991557,0.129674,0.129674,0.991557,1109.95,-486.364)">
        <path d="M205.401,508.172L975.427,508.172" style="fill:none;fill-rule:nonzero;stroke:rgb(103,103,103);stroke-width:4.5px;"/>
    </g>
    <g transform="matrix(-0.965822,0.259205,0.259205,0.965822,1042.54,-446.499)">
        <path d="M195.142,455.642L985.686,455.642" style="fill:none;fill-rule:nonzero;stroke:rgb(103,103,103);stroke-width:4.5px;"/>
    </g>
    <g transform="matrix(-0.928028,0.372511,0.372511,0.928028,987.52,-398.264)">
        <path d="M179.045,404.859L1001.78,404.859" style="fill:none;fill-rule:nonzero;stroke:rgb(103,103,103);stroke-width:4.5px;"/>
    </g>
    <g transform="matrix(-0.879725,0.475483,0.475483,0.879725,942.561,-339.693)">
        <path d="M156.458,351.759L1024.37,351.76" style="fill:none;fill-rule:nonzero;stroke:rgb(103,103,103);stroke-width:4.5px;"/>
    </g>
    <g transform="matrix(-0.828691,0.559706,0.559706,0.828691,911.632,-277.277)">
        <path d="M129.733,300.252L1051.1,300.252" style="fill:none;fill-rule:nonzero;stroke:rgb(103,103,103);stroke-width:4.5px;"/>
    </g>
    <g transform="matrix(0.965278,0.261226,0.261226,-0.965278,-72.2171,435.694)">
        <path d="M194.919,354.933L985.909,354.933" style="fill:none;fill-rule:nonzero;stroke:rgb(103,103,103);stroke-width:4.5px;"/>
    </g>
    <g transform="matrix(0.925345,0.379125,0.379125,-0.925345,-70.3556,355.876)">
        <path d="M177.852,301.833L1002.98,301.834" style="fill:none;fill-rule:nonzero;stroke:rgb(103,103,103);stroke-width:4.5px;"/>
    </g>
    <g transform="matrix(0.878074,0.478524,0.478524,-0.878074,-47.7388,289.217)">
        <path d="M155.642,250.197L1025.19,250.197" style="fill:none;fill-rule:nonzero;stroke:rgb(103,103,103);stroke-width:4.5px;"/>
    </g>
    <g transform="matrix(0.990414,-0.138131,-0.138131,-0.990414,61.6031,679.922)">
        <path d="M204.957,405.003L975.871,405.003" style="fill:none;fill-rule:nonzero;stroke:rgb(103,103,103);stroke-width:4.5px;"/>
    </g>
    <g transform="matrix(0.991269,0.131856,0.131856,-0.991269,-34.5308,521.772)">
        <path d="M205.289,300.978L975.539,300.978" style="fill:none;fill-rule:nonzero;stroke:rgb(103,103,103);stroke-width:4.5px;"/>
    </g>
    <g transform="matrix(0.96537,0.260886,0.260886,-0.96537,-44.4074,439.611)">
        <path d="M194.957,248.59L985.871,248.59" style="fill:none;fill-rule:nonzero;stroke:rgb(103,103,103);stroke-width:4.5px;"/>
    </g>
    <g transform="matrix(0.926105,0.377267,0.377267,-0.926105,-30.9442,364.9)">
        <path d="M178.191,197.667L1002.64,197.667" style="fill:none;fill-rule:nonzero;stroke:rgb(103,103,103);stroke-width:4.5px;"/>
    </g>
    <g transform="matrix(0.965278,-0.261226,-0.261226,-0.965278,113.218,744.157)">
        <path d="M194.919,354.933L985.909,354.932" style="fill:none;fill-rule:nonzero;stroke:rgb(103,103,103);stroke-width:4.5px;"/>
    </g>
    <g transform="matrix(0.991509,-0.130041,-0.130041,-0.991509,44.2455,676.466)">
        <path d="M205.383,301.689L975.445,301.689" style="fill:none;fill-rule:nonzero;stroke:rgb(103,103,103);stroke-width:4.5px;"/>
    </g>
    <g transform="matrix(0.990465,0.137763,0.137763,-0.990465,-21.7193,519.02)">
        <path d="M204.977,198.52L975.851,198.52" style="fill:none;fill-rule:nonzero;stroke:rgb(103,103,103);stroke-width:4.5px;"/>
    </g>
    <g transform="matrix(0.964366,0.264571,0.264571,-0.964366,-17.8225,440.81)">
        <path d="M194.546,146.884L986.282,146.884" style="fill:none;fill-rule:nonzero;stroke:rgb(103,103,103);stroke-width:4.5px;"/>
    </g>
    <g transform="matrix(0.925345,-0.379125,-0.379125,-0.925345,158.51,803.558)">
        <path d="M177.852,301.833L1002.98,301.833" style="fill:none;fill-rule:nonzero;stroke:rgb(103,103,103);stroke-width:4.5px;"/>
    </g>
    <g transform="matrix(0.96537,-0.260886,-0.260886,-0.96537,85.2998,747.672)">
        <path d="M194.957,248.59L985.871,248.59" style="fill:none;fill-rule:nonzero;stroke:rgb(103,103,103);stroke-width:4.5px;"/>
    </g>
    <g transform="matrix(0.990715,-0.135953,-0.135953,-0.990715,32.3745,680.682)">
        <path d="M205.074,197.809L975.754,197.809" style="fill:none;fill-rule:nonzero;stroke:rgb(103,103,103);stroke-width:4.5px;"/>
    </g>
    <g transform="matrix(0.990976,0.134037,0.134037,-0.990976,-7.24293,522.266)">
        <path d="M205.176,93.785L975.652,93.785" style="fill:none;fill-rule:nonzero;stroke:rgb(103,103,103);stroke-width:4.5px;"/>
    </g>
    <g transform="matrix(0.878074,-0.478524,-0.478524,-0.878074,191.712,854.272)">
        <path d="M155.642,250.197L1025.19,250.197" style="fill:none;fill-rule:nonzero;stroke:rgb(103,103,103);stroke-width:4.5px;"/>
    </g>
    <g transform="matrix(0.926817,-0.375513,-0.375513,-0.926817,117.215,809.535)">
        <path d="M178.508,197.083L1002.32,197.083" style="fill:none;fill-rule:nonzero;stroke:rgb(103,103,103);stroke-width:4.5px;"/>
    </g>
    <g transform="matrix(0.964906,-0.262596,-0.262596,-0.964906,59.1382,752.156)">
        <path d="M194.767,146.302L986.061,146.302" style="fill:none;fill-rule:nonzero;stroke:rgb(103,103,103);stroke-width:4.5px;"/>
    </g>
    <g transform="matrix(0.990869,-0.134831,-0.134831,-0.990869,18.1132,680.994)">
        <path d="M205.134,94.354L975.694,94.354" style="fill:none;fill-rule:nonzero;stroke:rgb(103,103,103);stroke-width:4.5px;"/>
    </g>
</svg>
